<?xml version="1.0" standalone="no"?>
<!DOCTYPE svg PUBLIC "-//W3C//DTD SVG 1.1//EN"
  "http://www.w3.org/Graphics/SVG/1.1/DTD/svg11.dtd">
<!-- Created with matplotlib (http://matplotlib.sourceforge.net/) -->
<svg width="648pt" height="288pt" viewBox="0 0 648 288"
   xmlns="http://www.w3.org/2000/svg"
   xmlns:xlink="http://www.w3.org/1999/xlink"
   version="1.1"
   id="svg1">
<filter id="colorAdd"><feComposite in="SourceGraphic" in2="BackgroundImage" operator="arithmetic" k2="1" k3="1"/></filter>
<g id="figure1">
<g id="patch1">
<path style="fill: #ffffff; stroke: #ffffff; stroke-width: 1.000000; stroke-linejoin: round; stroke-linecap: square;  opacity: 1.000000"  d="M0.000000 288.000000L648.000000 288.000000L648.000000 0.000000
L0.000000 0.000000z"/>
</g>
<g id="axes1">
<g id="patch2">
<path style="fill: #ffffff; opacity: 1.000000"  d="M81.000000 259.200000L309.272727 259.200000L309.272727 28.800000
L81.000000 28.800000z"/>
</g>
<g id="line2d1">
<defs>
  <clipPath id="pafea22ebd4c834764c1fb15a3ba00735">
<rect x="81.000000" y="28.800000" width="228.272727" height="230.400000"/>
  </clipPath>
</defs><path style="fill: none; stroke: #75507b; stroke-width: 2.000000; stroke-linejoin: round; stroke-linecap: square;  opacity: 1.000000" clip-path="url(#pafea22ebd4c834764c1fb15a3ba00735)" d="M87.522078 216.077480L94.044156 230.458770L100.566234 239.674331
L107.088312 244.058241L113.610390 246.768354L120.132468 248.455430
L126.654545 250.089516L133.176623 251.032367L139.698701 251.950618
L146.220779 252.677124L152.742857 253.231515L159.264935 253.807782
L165.787013 254.170388L172.309091 254.476324L178.831169 254.832927
L185.353247 255.047118L191.875325 255.360703L198.397403 255.585314
L204.919481 255.760726L211.441558 255.892081L217.963636 256.061044
L224.485714 256.191310L231.007792 256.352922L237.529870 256.486426
L244.051948 256.590703L250.574026 256.683370L257.096104 256.801873
L263.618182 256.875819L270.140260 256.954302L276.662338 256.992087
L283.184416 257.116809L289.706494 257.138929"/>
</g>
<g id="line2d2">
<path style="fill: none; stroke: #729fcf; stroke-width: 2.000000; stroke-linejoin: round; stroke-linecap: square;  opacity: 1.000000" clip-path="url(#pafea22ebd4c834764c1fb15a3ba00735)" d="M87.522078 189.600078L94.044156 208.127468L100.566234 216.435918
L107.088312 222.878207L113.610390 226.205474L120.132468 229.726423
L126.654545 231.677945L133.176623 233.319344L139.698701 235.079715
L146.220779 236.069853L152.742857 237.429577L159.264935 238.601121
L165.787013 239.266257L172.309091 240.142381L178.831169 240.640216
L185.353247 241.416723L191.875325 241.914700L198.397403 242.303309
L204.919481 242.848822L211.441558 243.351403L217.963636 243.798147
L224.485714 244.100880L231.007792 244.437645L237.529870 244.808906
L244.051948 245.064050L250.574026 245.423380L257.096104 245.706613
L263.618182 245.876465L270.140260 246.158753L276.662338 246.380807
L283.184416 246.545408L289.706494 246.777939"/>
</g>
<g id="line2d3">
<path style="fill: none; stroke: #cc0000; stroke-width: 2.000000; stroke-linejoin: round; stroke-linecap: square;  opacity: 1.000000" clip-path="url(#pafea22ebd4c834764c1fb15a3ba00735)" d="M87.522078 156.724165L94.044156 174.919232L100.566234 183.363737
L107.088312 189.552734L113.610390 193.441626L120.132468 196.864376
L126.654545 199.555816L133.176623 202.186517L139.698701 203.609974
L146.220779 205.346503L152.742857 206.988405L159.264935 207.980280
L165.787013 209.246709L172.309091 210.186864L178.831169 211.327210
L185.353247 212.183749L191.875325 213.041986L198.397403 213.658215
L204.919481 214.230813L211.441558 215.101120L217.963636 215.625224
L224.485714 216.274474L231.007792 216.805602L237.529870 217.348564
L244.051948 217.767621L250.574026 218.277759L257.096104 218.642461
L263.618182 218.959405L270.140260 219.530947L276.662338 219.837689
L283.184416 220.290970L289.706494 220.515400"/>
</g>
<g id="line2d4">
<path style="fill: none; stroke: #f57900; stroke-width: 2.000000; stroke-linejoin: round; stroke-linecap: square;  opacity: 1.000000" clip-path="url(#pafea22ebd4c834764c1fb15a3ba00735)" d="M87.522078 109.637269L94.044156 126.279858L100.566234 136.031281
L107.088312 142.616803L113.610390 146.150063L120.132468 149.920553
L126.654545 152.776347L133.176623 155.383878L139.698701 156.822236
L146.220779 158.491637L152.742857 159.951113L159.264935 161.713165
L165.787013 162.766847L172.309091 164.122961L178.831169 165.113121
L185.353247 166.091232L191.875325 167.205047L198.397403 167.765504
L204.919481 168.409913L211.441558 169.059874L217.963636 169.893145
L224.485714 170.725301L231.007792 171.248839L237.529870 171.920962
L244.051948 172.212008L250.574026 173.115112L257.096104 173.432157
L263.618182 173.948111L270.140260 174.375205L276.662338 174.806651
L283.184416 175.313432L289.706494 175.625226"/>
</g>
<g id="line2d5">
<path style="fill: none; stroke: #3465a5; stroke-width: 2.000000; stroke-linejoin: round; stroke-linecap: square;  opacity: 1.000000" clip-path="url(#pafea22ebd4c834764c1fb15a3ba00735)" d="M87.522078 48.874055L94.044156 62.382906L100.566234 72.286814
L107.088312 77.294767L113.610390 81.760847L120.132468 85.308887
L126.654545 87.645129L133.176623 89.683608L139.698701 91.948028
L146.220779 93.927830L152.742857 95.203284L159.264935 96.583027
L165.787013 98.468505L172.309091 99.041913L178.831169 100.336469
L185.353247 100.899916L191.875325 102.275872L198.397403 102.703389
L204.919481 103.738276L211.441558 104.332734L217.963636 105.007817
L224.485714 105.480426L231.007792 106.240838L237.529870 106.881953
L244.051948 107.377396L250.574026 107.795741L257.096104 108.540622
L263.618182 109.119171L270.140260 109.382153L276.662338 109.931217
L283.184416 110.280401L289.706494 110.734634"/>
</g>
<g id="matplotlib.axis1">
<g id="xtick1">
<g id="line2d6">
<defs><path id="m30e32995789d870ad79a2e54c91cf9c6" d="M0.000000 0.000000L0.000000 -4.000000"/></defs>
<g ><use style="fill: none; stroke: #000000; stroke-width: 0.500000; stroke-linejoin: round; stroke-linecap: butt;  opacity: 1.000000" xlink:href="#m30e32995789d870ad79a2e54c91cf9c6" x="81.000000" y="259.200000"/>
</g></g>
<g id="line2d7">
<defs><path id="m9281cae24120827b11d5ea8a7ad3e96b" d="M0.000000 0.000000L0.000000 4.000000"/></defs>
<g ><use style="fill: none; stroke: #000000; stroke-width: 0.500000; stroke-linejoin: round; stroke-linecap: butt;  opacity: 1.000000" xlink:href="#m9281cae24120827b11d5ea8a7ad3e96b" x="81.000000" y="28.800000"/>
</g></g>
<g id="text1">
<defs>
<path id="c_74ac5a75db101d5fb357b6c1cde42e77" d="M3.609375 -32.718750q0.000000 -11.328125 3.421875 -19.500000q3.421875 -8.187500 9.078125 -12.187500q4.406250 -3.171875 9.093750 -3.171875q7.609375 0.000000 13.671875 7.765625q7.562500 9.609375 7.562500 26.078125q0.000000 11.515625 -3.328125 19.578125q-3.312500 8.046875 -8.468750 11.687500q-5.140625 3.640625 -9.937500 3.640625q-9.468750 0.000000 -15.765625 -11.187500q-5.328125 -9.421875 -5.328125 -22.703125M13.187500 -31.500000q0.000000 13.671875 3.359375 22.312500q2.796875 7.281250 8.312500 7.281250q2.625000 0.000000 5.453125 -2.359375q2.843750 -2.375000 4.312500 -7.937500q2.234375 -8.406250 2.234375 -23.687500q0.000000 -11.328125 -2.343750 -18.890625q-1.750000 -5.625000 -4.531250 -7.968750q-2.000000 -1.609375 -4.843750 -1.609375q-3.312500 0.000000 -5.906250 2.984375q-3.515625 4.046875 -4.781250 12.750000q-1.265625 8.687500 -1.265625 17.125000"/>
</defs>
<g style="fill: #000000; opacity: 1.000000" transform="translate(78.859375,269.965625)scale(0.100000)">
<use xlink:href="#c_74ac5a75db101d5fb357b6c1cde42e77"/>
</g>
</g>
</g>
<g id="xtick2">
<g id="line2d8">
<g ><use style="fill: none; stroke: #000000; stroke-width: 0.500000; stroke-linejoin: round; stroke-linecap: butt;  opacity: 1.000000" xlink:href="#m30e32995789d870ad79a2e54c91cf9c6" x="113.610390" y="259.200000"/>
</g></g>
<g id="line2d9">
<g ><use style="fill: none; stroke: #000000; stroke-width: 0.500000; stroke-linejoin: round; stroke-linecap: butt;  opacity: 1.000000" xlink:href="#m9281cae24120827b11d5ea8a7ad3e96b" x="113.610390" y="28.800000"/>
</g></g>
<g id="text2">
<defs>
<path id="c_a550b5130cb7fa1be2857f9dba682636" d="M43.406250 -66.218750l-3.812500 8.312500l-19.921875 0.000000l-4.343750 8.875000q12.937500 1.906250 20.515625 9.625000q6.484375 6.640625 6.484375 15.625000q0.000000 5.218750 -2.125000 9.671875q-2.109375 4.437500 -5.343750 7.562500q-3.218750 3.125000 -7.171875 5.031250q-5.609375 2.687500 -11.531250 2.687500q-5.953125 0.000000 -8.671875 -2.015625q-2.703125 -2.031250 -2.703125 -4.484375q0.000000 -1.359375 1.125000 -2.406250q1.125000 -1.062500 2.828125 -1.062500q1.281250 0.000000 2.234375 0.390625q0.953125 0.390625 3.234375 2.015625q3.671875 2.531250 7.421875 2.531250q5.718750 0.000000 10.031250 -4.312500q4.328125 -4.328125 4.328125 -10.531250q0.000000 -6.000000 -3.859375 -11.203125q-3.859375 -5.203125 -10.640625 -8.031250q-5.328125 -2.203125 -14.500000 -2.546875l12.687500 -25.734375z"/>
</defs>
<g style="fill: #000000; opacity: 1.000000" transform="translate(111.680702,269.825000)scale(0.100000)">
<use xlink:href="#c_a550b5130cb7fa1be2857f9dba682636"/>
</g>
</g>
</g>
<g id="xtick3">
<g id="line2d10">
<g ><use style="fill: none; stroke: #000000; stroke-width: 0.500000; stroke-linejoin: round; stroke-linecap: butt;  opacity: 1.000000" xlink:href="#m30e32995789d870ad79a2e54c91cf9c6" x="146.220779" y="259.200000"/>
</g></g>
<g id="line2d11">
<g ><use style="fill: none; stroke: #000000; stroke-width: 0.500000; stroke-linejoin: round; stroke-linecap: butt;  opacity: 1.000000" xlink:href="#m9281cae24120827b11d5ea8a7ad3e96b" x="146.220779" y="28.800000"/>
</g></g>
<g id="text3">
<defs>
<path id="c_a79047214c7b97ce8afcc2ff740aa642" d="M11.718750 -59.718750l16.109375 -7.859375l1.609375 0.000000l0.000000 55.906250q0.000000 5.562500 0.468750 6.937500q0.468750 1.359375 1.921875 2.093750q1.468750 0.734375 5.968750 0.828125l0.000000 1.812500l-24.906250 0.000000l0.000000 -1.812500q4.687500 -0.093750 6.046875 -0.796875q1.375000 -0.718750 1.906250 -1.906250q0.546875 -1.203125 0.546875 -7.156250l0.000000 -35.734375q0.000000 -7.234375 -0.484375 -9.281250q-0.343750 -1.562500 -1.250000 -2.296875q-0.906250 -0.734375 -2.171875 -0.734375q-1.812500 0.000000 -5.031250 1.515625z"/>
</defs>
<g style="fill: #000000; opacity: 1.000000" transform="translate(141.986404,269.965625)scale(0.100000)">
<use xlink:href="#c_a79047214c7b97ce8afcc2ff740aa642"/>
<use xlink:href="#c_74ac5a75db101d5fb357b6c1cde42e77" x="50.000000"/>
</g>
</g>
</g>
<g id="xtick4">
<g id="line2d12">
<g ><use style="fill: none; stroke: #000000; stroke-width: 0.500000; stroke-linejoin: round; stroke-linecap: butt;  opacity: 1.000000" xlink:href="#m30e32995789d870ad79a2e54c91cf9c6" x="178.831169" y="259.200000"/>
</g></g>
<g id="line2d13">
<g ><use style="fill: none; stroke: #000000; stroke-width: 0.500000; stroke-linejoin: round; stroke-linecap: butt;  opacity: 1.000000" xlink:href="#m9281cae24120827b11d5ea8a7ad3e96b" x="178.831169" y="28.800000"/>
</g></g>
<g id="text4">
<g style="fill: #000000; opacity: 1.000000" transform="translate(174.745231,269.965625)scale(0.100000)">
<use xlink:href="#c_a79047214c7b97ce8afcc2ff740aa642"/>
<use xlink:href="#c_a550b5130cb7fa1be2857f9dba682636" x="50.000000"/>
</g>
</g>
</g>
<g id="xtick5">
<g id="line2d14">
<g ><use style="fill: none; stroke: #000000; stroke-width: 0.500000; stroke-linejoin: round; stroke-linecap: butt;  opacity: 1.000000" xlink:href="#m30e32995789d870ad79a2e54c91cf9c6" x="211.441558" y="259.200000"/>
</g></g>
<g id="line2d15">
<g ><use style="fill: none; stroke: #000000; stroke-width: 0.500000; stroke-linejoin: round; stroke-linecap: butt;  opacity: 1.000000" xlink:href="#m9281cae24120827b11d5ea8a7ad3e96b" x="211.441558" y="28.800000"/>
</g></g>
<g id="text5">
<defs>
<path id="c_ab771c85abf45b6b1a4f101d65f6d17d" d="M45.843750 -12.750000l-4.625000 12.750000l-39.062500 0.000000l0.000000 -1.812500q17.234375 -15.718750 24.265625 -25.671875q7.031250 -9.968750 7.031250 -18.218750q0.000000 -6.296875 -3.859375 -10.343750q-3.859375 -4.062500 -9.234375 -4.062500q-4.875000 0.000000 -8.765625 2.859375q-3.875000 2.859375 -5.734375 8.375000l-1.812500 0.000000q1.234375 -9.031250 6.281250 -13.859375q5.046875 -4.843750 12.625000 -4.843750q8.046875 0.000000 13.437500 5.171875q5.406250 5.171875 5.406250 12.203125q0.000000 5.031250 -2.343750 10.062500q-3.609375 7.906250 -11.718750 16.750000q-12.156250 13.281250 -15.187500 16.015625l17.281250 0.000000q5.281250 0.000000 7.406250 -0.390625q2.125000 -0.390625 3.828125 -1.578125q1.718750 -1.203125 2.984375 -3.406250z"/>
</defs>
<g style="fill: #000000; opacity: 1.000000" transform="translate(206.730621,269.965625)scale(0.100000)">
<use xlink:href="#c_ab771c85abf45b6b1a4f101d65f6d17d"/>
<use xlink:href="#c_74ac5a75db101d5fb357b6c1cde42e77" x="50.000000"/>
</g>
</g>
</g>
<g id="xtick6">
<g id="line2d16">
<g ><use style="fill: none; stroke: #000000; stroke-width: 0.500000; stroke-linejoin: round; stroke-linecap: butt;  opacity: 1.000000" xlink:href="#m30e32995789d870ad79a2e54c91cf9c6" x="244.051948" y="259.200000"/>
</g></g>
<g id="line2d17">
<g ><use style="fill: none; stroke: #000000; stroke-width: 0.500000; stroke-linejoin: round; stroke-linecap: butt;  opacity: 1.000000" xlink:href="#m9281cae24120827b11d5ea8a7ad3e96b" x="244.051948" y="28.800000"/>
</g></g>
<g id="text6">
<g style="fill: #000000; opacity: 1.000000" transform="translate(239.489448,269.965625)scale(0.100000)">
<use xlink:href="#c_ab771c85abf45b6b1a4f101d65f6d17d"/>
<use xlink:href="#c_a550b5130cb7fa1be2857f9dba682636" x="50.000000"/>
</g>
</g>
</g>
<g id="xtick7">
<g id="line2d18">
<g ><use style="fill: none; stroke: #000000; stroke-width: 0.500000; stroke-linejoin: round; stroke-linecap: butt;  opacity: 1.000000" xlink:href="#m30e32995789d870ad79a2e54c91cf9c6" x="276.662338" y="259.200000"/>
</g></g>
<g id="line2d19">
<g ><use style="fill: none; stroke: #000000; stroke-width: 0.500000; stroke-linejoin: round; stroke-linecap: butt;  opacity: 1.000000" xlink:href="#m9281cae24120827b11d5ea8a7ad3e96b" x="276.662338" y="28.800000"/>
</g></g>
<g id="text7">
<defs>
<path id="c_eb11c166319a854e2eb2b820842f2c4b" d="M5.078125 -53.609375q2.828125 -6.687500 7.140625 -10.328125q4.328125 -3.640625 10.781250 -3.640625q7.953125 0.000000 12.203125 5.171875q3.218750 3.859375 3.218750 8.250000q0.000000 7.234375 -9.078125 14.953125q6.109375 2.390625 9.234375 6.828125q3.125000 4.437500 3.125000 10.453125q0.000000 8.593750 -5.468750 14.890625q-7.125000 8.203125 -20.656250 8.203125q-6.687500 0.000000 -9.109375 -1.656250q-2.421875 -1.671875 -2.421875 -3.562500q0.000000 -1.421875 1.140625 -2.500000q1.156250 -1.078125 2.765625 -1.078125q1.234375 0.000000 2.500000 0.390625q0.828125 0.250000 3.750000 1.796875q2.937500 1.531250 4.062500 1.828125q1.796875 0.531250 3.859375 0.531250q4.968750 0.000000 8.656250 -3.859375q3.687500 -3.859375 3.687500 -9.125000q0.000000 -3.859375 -1.703125 -7.515625q-1.265625 -2.734375 -2.781250 -4.156250q-2.109375 -1.953125 -5.765625 -3.531250q-3.656250 -1.593750 -7.468750 -1.593750l-1.562500 0.000000l0.000000 -1.468750q3.859375 -0.484375 7.734375 -2.781250q3.890625 -2.296875 5.640625 -5.515625q1.765625 -3.218750 1.765625 -7.078125q0.000000 -5.031250 -3.156250 -8.125000q-3.140625 -3.109375 -7.828125 -3.109375q-7.578125 0.000000 -12.656250 8.109375z"/>
</defs>
<g style="fill: #000000; opacity: 1.000000" transform="translate(272.045150,269.965625)scale(0.100000)">
<use xlink:href="#c_eb11c166319a854e2eb2b820842f2c4b"/>
<use xlink:href="#c_74ac5a75db101d5fb357b6c1cde42e77" x="50.000000"/>
</g>
</g>
</g>
<g id="xtick8">
<g id="line2d20">
<g ><use style="fill: none; stroke: #000000; stroke-width: 0.500000; stroke-linejoin: round; stroke-linecap: butt;  opacity: 1.000000" xlink:href="#m30e32995789d870ad79a2e54c91cf9c6" x="309.272727" y="259.200000"/>
</g></g>
<g id="line2d21">
<g ><use style="fill: none; stroke: #000000; stroke-width: 0.500000; stroke-linejoin: round; stroke-linecap: butt;  opacity: 1.000000" xlink:href="#m9281cae24120827b11d5ea8a7ad3e96b" x="309.272727" y="28.800000"/>
</g></g>
<g id="text8">
<g style="fill: #000000; opacity: 1.000000" transform="translate(304.803977,269.965625)scale(0.100000)">
<use xlink:href="#c_eb11c166319a854e2eb2b820842f2c4b"/>
<use xlink:href="#c_a550b5130cb7fa1be2857f9dba682636" x="50.000000"/>
</g>
</g>
</g>
<g id="text9">
<defs>
<path id="c_3ed1bbae7776598d9f74b8b8e4aaf429" d="M45.843750 -67.718750l0.000000 22.890625l-1.796875 0.000000q-0.875000 -6.593750 -3.156250 -10.500000q-2.265625 -3.906250 -6.468750 -6.187500q-4.203125 -2.296875 -8.687500 -2.296875q-5.078125 0.000000 -8.406250 3.093750q-3.312500 3.093750 -3.312500 7.062500q0.000000 3.015625 2.093750 5.515625q3.031250 3.656250 14.406250 9.765625q9.281250 4.968750 12.671875 7.640625q3.390625 2.656250 5.218750 6.281250q1.843750 3.609375 1.843750 7.562500q0.000000 7.515625 -5.843750 12.968750q-5.828125 5.437500 -15.015625 5.437500q-2.875000 0.000000 -5.421875 -0.437500q-1.500000 -0.250000 -6.265625 -1.781250q-4.765625 -1.546875 -6.031250 -1.546875q-1.218750 0.000000 -1.937500 0.734375q-0.703125 0.734375 -1.046875 3.031250l-1.796875 0.000000l0.000000 -22.703125l1.796875 0.000000q1.281250 7.125000 3.421875 10.671875q2.156250 3.531250 6.562500 5.875000q4.421875 2.343750 9.703125 2.343750q6.093750 0.000000 9.625000 -3.218750q3.546875 -3.218750 3.546875 -7.625000q0.000000 -2.437500 -1.343750 -4.921875q-1.328125 -2.500000 -4.171875 -4.640625q-1.906250 -1.468750 -10.406250 -6.218750q-8.484375 -4.765625 -12.078125 -7.593750q-3.578125 -2.843750 -5.437500 -6.250000q-1.859375 -3.421875 -1.859375 -7.531250q0.000000 -7.125000 5.468750 -12.265625q5.468750 -5.156250 13.921875 -5.156250q5.265625 0.000000 11.171875 2.578125q2.734375 1.218750 3.859375 1.218750q1.265625 0.000000 2.078125 -0.750000q0.812500 -0.765625 1.296875 -3.046875z"/>
<path id="c_8f20758764ac743c2e0d8760a082d31c" d="M10.640625 -27.875000q-0.046875 9.953125 4.843750 15.625000q4.875000 5.656250 11.468750 5.656250q4.390625 0.000000 7.640625 -2.406250q3.250000 -2.421875 5.453125 -8.281250l1.500000 0.968750q-1.015625 6.687500 -5.953125 12.187500q-4.921875 5.500000 -12.343750 5.500000q-8.062500 0.000000 -13.796875 -6.281250q-5.734375 -6.281250 -5.734375 -16.875000q0.000000 -11.468750 5.875000 -17.890625q5.890625 -6.421875 14.765625 -6.421875q7.531250 0.000000 12.359375 4.953125q4.828125 4.953125 4.828125 13.265625zM10.640625 -30.718750l20.703125 0.000000q-0.234375 -4.296875 -1.015625 -6.046875q-1.218750 -2.734375 -3.640625 -4.296875q-2.421875 -1.562500 -5.062500 -1.562500q-4.046875 0.000000 -7.250000 3.156250q-3.187500 3.140625 -3.734375 8.750000"/>
<path id="c_5f0097d572a3190dbe480c5b89bfc8c9" d="M42.718750 -46.046875l0.000000 57.515625q0.000000 4.296875 0.578125 5.515625q0.593750 1.234375 1.843750 1.906250q1.250000 0.687500 4.859375 0.687500l0.000000 1.812500l-22.562500 0.000000l0.000000 -1.812500l0.937500 0.000000q2.734375 0.000000 4.140625 -0.781250q0.984375 -0.531250 1.562500 -1.921875q0.593750 -1.390625 0.593750 -5.406250l0.000000 -19.234375q-4.453125 5.281250 -7.781250 7.218750q-3.312500 1.921875 -6.875000 1.921875q-6.484375 0.000000 -11.593750 -5.906250q-5.093750 -5.921875 -5.093750 -15.828125q0.000000 -11.375000 6.734375 -18.531250q6.734375 -7.156250 16.250000 -7.156250q2.796875 0.000000 5.140625 0.781250q2.343750 0.781250 4.187500 2.343750q2.843750 -1.359375 5.421875 -3.125000zM34.671875 -10.843750l0.000000 -21.000000q0.000000 -3.656250 -0.953125 -5.750000q-0.953125 -2.109375 -3.406250 -3.562500q-2.437500 -1.468750 -5.500000 -1.468750q-5.468750 0.000000 -9.375000 4.640625q-3.906250 4.640625 -3.906250 14.062500q0.000000 9.031250 3.968750 13.718750q3.984375 4.687500 9.593750 4.687500q2.890625 0.000000 5.125000 -1.250000q2.250000 -1.250000 4.453125 -4.078125"/>
<path id="c_a45591283f72e33cfd85399e16cbbfd8" d="M42.328125 -44.734375l0.000000 27.109375q0.000000 7.765625 0.359375 9.500000q0.375000 1.734375 1.171875 2.421875q0.812500 0.671875 1.890625 0.671875q1.515625 0.000000 3.421875 -0.828125l0.687500 1.703125l-13.390625 5.531250l-2.187500 0.000000l0.000000 -9.484375q-5.765625 6.250000 -8.796875 7.875000q-3.015625 1.609375 -6.390625 1.609375q-3.765625 0.000000 -6.531250 -2.171875q-2.750000 -2.187500 -3.828125 -5.593750q-1.062500 -3.421875 -1.062500 -9.671875l0.000000 -19.968750q0.000000 -3.171875 -0.687500 -4.390625q-0.687500 -1.234375 -2.031250 -1.890625q-1.343750 -0.656250 -4.859375 -0.609375l0.000000 -1.812500l15.671875 0.000000l0.000000 29.937500q0.000000 6.250000 2.171875 8.203125q2.187500 1.953125 5.250000 1.953125q2.109375 0.000000 4.765625 -1.312500q2.656250 -1.328125 6.328125 -5.031250l0.000000 -25.343750q0.000000 -3.812500 -1.390625 -5.156250q-1.390625 -1.343750 -5.796875 -1.437500l0.000000 -1.812500z"/>
<path id="c_09c0ced85464b3e35e48217151d5e648" d="M16.156250 -36.578125q7.875000 -9.468750 15.000000 -9.468750q3.656250 0.000000 6.296875 1.828125q2.640625 1.828125 4.203125 6.031250q1.062500 2.937500 1.062500 8.984375l0.000000 19.093750q0.000000 4.250000 0.687500 5.765625q0.546875 1.218750 1.734375 1.906250q1.203125 0.671875 4.421875 0.671875l0.000000 1.765625l-22.125000 0.000000l0.000000 -1.765625l0.937500 0.000000q3.125000 0.000000 4.359375 -0.937500q1.250000 -0.953125 1.734375 -2.812500q0.203125 -0.734375 0.203125 -4.593750l0.000000 -18.312500q0.000000 -6.093750 -1.593750 -8.859375q-1.578125 -2.765625 -5.343750 -2.765625q-5.812500 0.000000 -11.578125 6.359375l0.000000 23.578125q0.000000 4.546875 0.546875 5.609375q0.687500 1.421875 1.875000 2.078125q1.203125 0.656250 4.859375 0.656250l0.000000 1.765625l-22.125000 0.000000l0.000000 -1.765625l0.984375 0.000000q3.421875 0.000000 4.609375 -1.718750q1.203125 -1.734375 1.203125 -6.625000l0.000000 -16.593750q0.000000 -8.062500 -0.375000 -9.812500q-0.359375 -1.765625 -1.125000 -2.390625q-0.750000 -0.640625 -2.015625 -0.640625q-1.375000 0.000000 -3.281250 0.734375l-0.718750 -1.765625l13.468750 -5.468750l2.093750 0.000000z"/>
<path id="c_6434c209dc220672c052910c6e627c24" d="M41.109375 -17.000000q-1.796875 8.843750 -7.078125 13.609375q-5.265625 4.765625 -11.671875 4.765625q-7.609375 0.000000 -13.281250 -6.390625q-5.656250 -6.406250 -5.656250 -17.296875q0.000000 -10.546875 6.265625 -17.140625q6.281250 -6.593750 15.062500 -6.593750q6.593750 0.000000 10.843750 3.500000q4.250000 3.484375 4.250000 7.250000q0.000000 1.843750 -1.203125 3.000000q-1.187500 1.140625 -3.343750 1.140625q-2.875000 0.000000 -4.343750 -1.859375q-0.828125 -1.015625 -1.093750 -3.890625q-0.265625 -2.890625 -1.984375 -4.406250q-1.703125 -1.468750 -4.734375 -1.468750q-4.875000 0.000000 -7.859375 3.625000q-3.953125 4.781250 -3.953125 12.640625q0.000000 8.015625 3.921875 14.140625q3.937500 6.125000 10.625000 6.125000q4.796875 0.000000 8.593750 -3.265625q2.687500 -2.250000 5.234375 -8.156250z"/>
<path id="c_d41d8cd98f00b204e9800998ecf8427e" d=""/>
<path id="c_13313eaa25646cd9cbc2b9f6e5a25a7c" d="M18.500000 -69.437500l0.000000 59.328125q0.000000 4.203125 0.609375 5.578125q0.625000 1.359375 1.890625 2.062500q1.265625 0.703125 4.734375 0.703125l0.000000 1.765625l-21.921875 0.000000l0.000000 -1.765625q3.078125 0.000000 4.187500 -0.625000q1.125000 -0.640625 1.765625 -2.093750q0.640625 -1.468750 0.640625 -5.625000l0.000000 -40.625000q0.000000 -7.562500 -0.343750 -9.296875q-0.343750 -1.734375 -1.109375 -2.359375q-0.750000 -0.640625 -1.921875 -0.640625q-1.265625 0.000000 -3.218750 0.781250l-0.828125 -1.718750l13.328125 -5.468750z"/>
<path id="c_c0f2fcec17a4fe8358ab541eeed15ab4" d="M15.093750 -16.312500q-4.109375 -2.000000 -6.312500 -5.578125q-2.187500 -3.593750 -2.187500 -7.937500q0.000000 -6.640625 5.000000 -11.421875q5.015625 -4.796875 12.828125 -4.796875q6.390625 0.000000 11.078125 3.125000l9.468750 0.000000q2.109375 0.000000 2.437500 0.125000q0.343750 0.125000 0.500000 0.406250q0.281250 0.453125 0.281250 1.562500q0.000000 1.281250 -0.234375 1.765625q-0.156250 0.250000 -0.515625 0.390625q-0.359375 0.140625 -2.468750 0.140625l-5.812500 0.000000q2.734375 3.515625 2.734375 8.984375q0.000000 6.250000 -4.781250 10.703125q-4.781250 4.437500 -12.843750 4.437500q-3.312500 0.000000 -6.781250 -0.968750q-2.156250 1.843750 -2.921875 3.234375q-0.750000 1.390625 -0.750000 2.375000q0.000000 0.828125 0.812500 1.609375q0.812500 0.781250 3.156250 1.125000q1.359375 0.187500 6.828125 0.343750q10.062500 0.234375 13.031250 0.687500q4.546875 0.625000 7.250000 3.359375q2.718750 2.734375 2.718750 6.750000q0.000000 5.515625 -5.171875 10.343750q-7.625000 7.125000 -19.875000 7.125000q-9.421875 0.000000 -15.921875 -4.250000q-3.656250 -2.437500 -3.656250 -5.078125q0.000000 -1.171875 0.531250 -2.343750q0.828125 -1.796875 3.421875 -5.015625q0.343750 -0.453125 4.984375 -5.281250q-2.546875 -1.515625 -3.593750 -2.703125q-1.046875 -1.203125 -1.046875 -2.718750q0.000000 -1.703125 1.390625 -4.000000q1.390625 -2.296875 6.421875 -6.500000M23.578125 -43.703125q-3.609375 0.000000 -6.046875 2.890625q-2.437500 2.875000 -2.437500 8.828125q0.000000 7.718750 3.312500 11.968750q2.546875 3.218750 6.453125 3.218750q3.703125 0.000000 6.093750 -2.781250q2.390625 -2.781250 2.390625 -8.750000q0.000000 -7.750000 -3.359375 -12.156250q-2.500000 -3.218750 -6.406250 -3.218750M14.593750 -0.000000q-2.281250 2.484375 -3.453125 4.625000q-1.171875 2.156250 -1.171875 3.968750q0.000000 2.343750 2.828125 4.109375q4.875000 3.015625 14.109375 3.015625q8.781250 0.000000 12.953125 -3.109375q4.187500 -3.093750 4.187500 -6.609375q0.000000 -2.531250 -2.500000 -3.609375q-2.531250 -1.078125 -10.046875 -1.265625q-10.984375 -0.296875 -16.906250 -1.125000"/>
<path id="c_796b7a757ae14324343502912cd3b0d7" d="M16.109375 -59.421875l0.000000 14.687500l10.453125 0.000000l0.000000 3.421875l-10.453125 0.000000l0.000000 29.000000q0.000000 4.359375 1.250000 5.875000q1.250000 1.500000 3.203125 1.500000q1.609375 0.000000 3.125000 -1.000000q1.515625 -1.000000 2.343750 -2.953125l1.906250 0.000000q-1.718750 4.781250 -4.843750 7.203125q-3.125000 2.421875 -6.437500 2.421875q-2.250000 0.000000 -4.406250 -1.250000q-2.140625 -1.250000 -3.171875 -3.562500q-1.015625 -2.312500 -1.015625 -7.156250l0.000000 -30.078125l-7.078125 0.000000l0.000000 -1.609375q2.671875 -1.078125 5.484375 -3.640625q2.812500 -2.562500 5.000000 -6.078125q1.125000 -1.859375 3.125000 -6.781250z"/>
<path id="c_e0b0d663e581e507f32c0e025d1f75eb" d="M16.265625 -69.437500l0.000000 32.718750q5.421875 -5.953125 8.593750 -7.640625q3.171875 -1.687500 6.343750 -1.687500q3.812500 0.000000 6.546875 2.109375q2.734375 2.093750 4.046875 6.578125q0.921875 3.125000 0.921875 11.437500l0.000000 15.812500q0.000000 4.250000 0.687500 5.812500q0.484375 1.171875 1.656250 1.859375q1.171875 0.671875 4.296875 0.671875l0.000000 1.765625l-21.968750 0.000000l0.000000 -1.765625l1.031250 0.000000q3.125000 0.000000 4.343750 -0.937500q1.218750 -0.953125 1.703125 -2.812500q0.156250 -0.781250 0.156250 -4.593750l0.000000 -15.812500q0.000000 -7.328125 -0.765625 -9.625000q-0.750000 -2.296875 -2.421875 -3.437500q-1.656250 -1.156250 -4.000000 -1.156250q-2.390625 0.000000 -4.984375 1.281250q-2.578125 1.265625 -6.187500 5.125000l0.000000 23.625000q0.000000 4.593750 0.500000 5.718750q0.515625 1.125000 1.906250 1.875000q1.390625 0.750000 4.812500 0.750000l0.000000 1.765625l-22.171875 0.000000l0.000000 -1.765625q2.984375 0.000000 4.687500 -0.921875q0.984375 -0.484375 1.562500 -1.843750q0.593750 -1.375000 0.593750 -5.578125l0.000000 -40.484375q0.000000 -7.656250 -0.375000 -9.406250q-0.359375 -1.765625 -1.125000 -2.390625q-0.750000 -0.640625 -2.015625 -0.640625q-1.031250 0.000000 -3.328125 0.781250l-0.671875 -1.718750l13.375000 -5.468750z"/>
</defs>
<g style="fill: #000000; opacity: 1.000000" transform="translate(162.261364,282.028125)scale(0.100000)">
<use xlink:href="#c_3ed1bbae7776598d9f74b8b8e4aaf429"/>
<use xlink:href="#c_8f20758764ac743c2e0d8760a082d31c" x="55.615234"/>
<use xlink:href="#c_5f0097d572a3190dbe480c5b89bfc8c9" x="100.000000"/>
<use xlink:href="#c_a45591283f72e33cfd85399e16cbbfd8" x="150.000000"/>
<use xlink:href="#c_8f20758764ac743c2e0d8760a082d31c" x="200.000000"/>
<use xlink:href="#c_09c0ced85464b3e35e48217151d5e648" x="244.384766"/>
<use xlink:href="#c_6434c209dc220672c052910c6e627c24" x="294.384766"/>
<use xlink:href="#c_8f20758764ac743c2e0d8760a082d31c" x="338.769531"/>
<use xlink:href="#c_d41d8cd98f00b204e9800998ecf8427e" x="383.154297"/>
<use xlink:href="#c_13313eaa25646cd9cbc2b9f6e5a25a7c" x="408.154297"/>
<use xlink:href="#c_8f20758764ac743c2e0d8760a082d31c" x="435.937500"/>
<use xlink:href="#c_09c0ced85464b3e35e48217151d5e648" x="480.322266"/>
<use xlink:href="#c_c0f2fcec17a4fe8358ab541eeed15ab4" x="530.322266"/>
<use xlink:href="#c_796b7a757ae14324343502912cd3b0d7" x="580.322266"/>
<use xlink:href="#c_e0b0d663e581e507f32c0e025d1f75eb" x="608.105469"/>
</g>
</g>
</g>
<g id="matplotlib.axis2">
<g id="ytick1">
<g id="line2d22">
<defs><path id="m3400efa6b1638b3fea9e19e898273957" d="M0.000000 0.000000L4.000000 0.000000"/></defs>
<g ><use style="fill: none; stroke: #000000; stroke-width: 0.500000; stroke-linejoin: round; stroke-linecap: butt;  opacity: 1.000000" xlink:href="#m3400efa6b1638b3fea9e19e898273957" x="81.000000" y="259.200000"/>
</g></g>
<g id="line2d23">
<defs><path id="m20b58b2501143cb5e0a5e8f1ef6f1643" d="M0.000000 0.000000L-4.000000 0.000000"/></defs>
<g ><use style="fill: none; stroke: #000000; stroke-width: 0.500000; stroke-linejoin: round; stroke-linecap: butt;  opacity: 1.000000" xlink:href="#m20b58b2501143cb5e0a5e8f1ef6f1643" x="309.272727" y="259.200000"/>
</g></g>
<g id="text10">
<defs>
<path id="c_e4678747c298bce5e6f328d9b79a8ccb" d="M12.500000 -9.468750q2.296875 0.000000 3.859375 1.593750q1.562500 1.578125 1.562500 3.828125q0.000000 2.234375 -1.593750 3.828125q-1.578125 1.593750 -3.828125 1.593750q-2.250000 0.000000 -3.843750 -1.593750q-1.578125 -1.593750 -1.578125 -3.828125q0.000000 -2.296875 1.578125 -3.859375q1.593750 -1.562500 3.843750 -1.562500"/>
</defs>
<g style="fill: #000000; opacity: 1.000000" transform="translate(65.218750,262.512500)scale(0.100000)">
<use xlink:href="#c_74ac5a75db101d5fb357b6c1cde42e77"/>
<use xlink:href="#c_e4678747c298bce5e6f328d9b79a8ccb" x="50.000000"/>
<use xlink:href="#c_74ac5a75db101d5fb357b6c1cde42e77" x="75.000000"/>
</g>
</g>
</g>
<g id="ytick2">
<g id="line2d24">
<g ><use style="fill: none; stroke: #000000; stroke-width: 0.500000; stroke-linejoin: round; stroke-linecap: butt;  opacity: 1.000000" xlink:href="#m3400efa6b1638b3fea9e19e898273957" x="81.000000" y="226.285714"/>
</g></g>
<g id="line2d25">
<g ><use style="fill: none; stroke: #000000; stroke-width: 0.500000; stroke-linejoin: round; stroke-linecap: butt;  opacity: 1.000000" xlink:href="#m20b58b2501143cb5e0a5e8f1ef6f1643" x="309.272727" y="226.285714"/>
</g></g>
<g id="text11">
<g style="fill: #000000; opacity: 1.000000" transform="translate(65.515625,229.598214)scale(0.100000)">
<use xlink:href="#c_74ac5a75db101d5fb357b6c1cde42e77"/>
<use xlink:href="#c_e4678747c298bce5e6f328d9b79a8ccb" x="50.000000"/>
<use xlink:href="#c_a550b5130cb7fa1be2857f9dba682636" x="75.000000"/>
</g>
</g>
</g>
<g id="ytick3">
<g id="line2d26">
<g ><use style="fill: none; stroke: #000000; stroke-width: 0.500000; stroke-linejoin: round; stroke-linecap: butt;  opacity: 1.000000" xlink:href="#m3400efa6b1638b3fea9e19e898273957" x="81.000000" y="193.371429"/>
</g></g>
<g id="line2d27">
<g ><use style="fill: none; stroke: #000000; stroke-width: 0.500000; stroke-linejoin: round; stroke-linecap: butt;  opacity: 1.000000" xlink:href="#m20b58b2501143cb5e0a5e8f1ef6f1643" x="309.272727" y="193.371429"/>
</g></g>
<g id="text12">
<g style="fill: #000000; opacity: 1.000000" transform="translate(66.031250,196.683929)scale(0.100000)">
<use xlink:href="#c_a79047214c7b97ce8afcc2ff740aa642"/>
<use xlink:href="#c_e4678747c298bce5e6f328d9b79a8ccb" x="50.000000"/>
<use xlink:href="#c_74ac5a75db101d5fb357b6c1cde42e77" x="75.000000"/>
</g>
</g>
</g>
<g id="ytick4">
<g id="line2d28">
<g ><use style="fill: none; stroke: #000000; stroke-width: 0.500000; stroke-linejoin: round; stroke-linecap: butt;  opacity: 1.000000" xlink:href="#m3400efa6b1638b3fea9e19e898273957" x="81.000000" y="160.457143"/>
</g></g>
<g id="line2d29">
<g ><use style="fill: none; stroke: #000000; stroke-width: 0.500000; stroke-linejoin: round; stroke-linecap: butt;  opacity: 1.000000" xlink:href="#m20b58b2501143cb5e0a5e8f1ef6f1643" x="309.272727" y="160.457143"/>
</g></g>
<g id="text13">
<g style="fill: #000000; opacity: 1.000000" transform="translate(66.328125,163.769643)scale(0.100000)">
<use xlink:href="#c_a79047214c7b97ce8afcc2ff740aa642"/>
<use xlink:href="#c_e4678747c298bce5e6f328d9b79a8ccb" x="50.000000"/>
<use xlink:href="#c_a550b5130cb7fa1be2857f9dba682636" x="75.000000"/>
</g>
</g>
</g>
<g id="ytick5">
<g id="line2d30">
<g ><use style="fill: none; stroke: #000000; stroke-width: 0.500000; stroke-linejoin: round; stroke-linecap: butt;  opacity: 1.000000" xlink:href="#m3400efa6b1638b3fea9e19e898273957" x="81.000000" y="127.542857"/>
</g></g>
<g id="line2d31">
<g ><use style="fill: none; stroke: #000000; stroke-width: 0.500000; stroke-linejoin: round; stroke-linecap: butt;  opacity: 1.000000" xlink:href="#m20b58b2501143cb5e0a5e8f1ef6f1643" x="309.272727" y="127.542857"/>
</g></g>
<g id="text14">
<g style="fill: #000000; opacity: 1.000000" transform="translate(65.078125,130.855357)scale(0.100000)">
<use xlink:href="#c_ab771c85abf45b6b1a4f101d65f6d17d"/>
<use xlink:href="#c_e4678747c298bce5e6f328d9b79a8ccb" x="50.000000"/>
<use xlink:href="#c_74ac5a75db101d5fb357b6c1cde42e77" x="75.000000"/>
</g>
</g>
</g>
<g id="ytick6">
<g id="line2d32">
<g ><use style="fill: none; stroke: #000000; stroke-width: 0.500000; stroke-linejoin: round; stroke-linecap: butt;  opacity: 1.000000" xlink:href="#m3400efa6b1638b3fea9e19e898273957" x="81.000000" y="94.628571"/>
</g></g>
<g id="line2d33">
<g ><use style="fill: none; stroke: #000000; stroke-width: 0.500000; stroke-linejoin: round; stroke-linecap: butt;  opacity: 1.000000" xlink:href="#m20b58b2501143cb5e0a5e8f1ef6f1643" x="309.272727" y="94.628571"/>
</g></g>
<g id="text15">
<g style="fill: #000000; opacity: 1.000000" transform="translate(65.375000,97.941071)scale(0.100000)">
<use xlink:href="#c_ab771c85abf45b6b1a4f101d65f6d17d"/>
<use xlink:href="#c_e4678747c298bce5e6f328d9b79a8ccb" x="50.000000"/>
<use xlink:href="#c_a550b5130cb7fa1be2857f9dba682636" x="75.000000"/>
</g>
</g>
</g>
<g id="ytick7">
<g id="line2d34">
<g ><use style="fill: none; stroke: #000000; stroke-width: 0.500000; stroke-linejoin: round; stroke-linecap: butt;  opacity: 1.000000" xlink:href="#m3400efa6b1638b3fea9e19e898273957" x="81.000000" y="61.714286"/>
</g></g>
<g id="line2d35">
<g ><use style="fill: none; stroke: #000000; stroke-width: 0.500000; stroke-linejoin: round; stroke-linecap: butt;  opacity: 1.000000" xlink:href="#m20b58b2501143cb5e0a5e8f1ef6f1643" x="309.272727" y="61.714286"/>
</g></g>
<g id="text16">
<g style="fill: #000000; opacity: 1.000000" transform="translate(65.265625,65.026786)scale(0.100000)">
<use xlink:href="#c_eb11c166319a854e2eb2b820842f2c4b"/>
<use xlink:href="#c_e4678747c298bce5e6f328d9b79a8ccb" x="50.000000"/>
<use xlink:href="#c_74ac5a75db101d5fb357b6c1cde42e77" x="75.000000"/>
</g>
</g>
</g>
<g id="ytick8">
<g id="line2d36">
<g ><use style="fill: none; stroke: #000000; stroke-width: 0.500000; stroke-linejoin: round; stroke-linecap: butt;  opacity: 1.000000" xlink:href="#m3400efa6b1638b3fea9e19e898273957" x="81.000000" y="28.800000"/>
</g></g>
<g id="line2d37">
<g ><use style="fill: none; stroke: #000000; stroke-width: 0.500000; stroke-linejoin: round; stroke-linecap: butt;  opacity: 1.000000" xlink:href="#m20b58b2501143cb5e0a5e8f1ef6f1643" x="309.272727" y="28.800000"/>
</g></g>
<g id="text17">
<g style="fill: #000000; opacity: 1.000000" transform="translate(65.562500,32.112500)scale(0.100000)">
<use xlink:href="#c_eb11c166319a854e2eb2b820842f2c4b"/>
<use xlink:href="#c_e4678747c298bce5e6f328d9b79a8ccb" x="50.000000"/>
<use xlink:href="#c_a550b5130cb7fa1be2857f9dba682636" x="75.000000"/>
</g>
</g>
</g>
<g id="text18">
<defs>
<path id="c_7e0d4decb5d3f7e7dfd0e4085e07e5cd" d="M40.921875 -0.000000l-25.593750 -55.718750l0.000000 44.250000q0.000000 6.093750 1.328125 7.609375q1.796875 2.046875 5.703125 2.046875l2.343750 0.000000l0.000000 1.812500l-23.046875 0.000000l0.000000 -1.812500l2.343750 0.000000q4.203125 0.000000 5.968750 -2.531250q1.062500 -1.562500 1.062500 -7.125000l0.000000 -43.265625q0.000000 -4.390625 -0.968750 -6.343750q-0.687500 -1.421875 -2.515625 -2.375000q-1.828125 -0.953125 -5.890625 -0.953125l0.000000 -1.812500l18.750000 0.000000l24.031250 51.812500l23.625000 -51.812500l18.750000 0.000000l0.000000 1.812500l-2.296875 0.000000q-4.234375 0.000000 -6.000000 2.546875q-1.078125 1.562500 -1.078125 7.125000l0.000000 43.265625q0.000000 6.093750 1.375000 7.609375q1.796875 2.046875 5.703125 2.046875l2.296875 0.000000l0.000000 1.812500l-28.125000 0.000000l0.000000 -1.812500l2.343750 0.000000q4.250000 0.000000 5.968750 -2.531250q1.062500 -1.562500 1.062500 -7.125000l0.000000 -44.250000l-25.531250 55.718750z"/>
<path id="c_c63d997d1b9dff23cbba5e445fe5916f" d="M28.468750 -6.453125q-6.890625 5.328125 -8.640625 6.156250q-2.640625 1.218750 -5.625000 1.218750q-4.625000 0.000000 -7.640625 -3.171875q-3.000000 -3.171875 -3.000000 -8.343750q0.000000 -3.281250 1.468750 -5.671875q2.000000 -3.312500 6.953125 -6.234375q4.953125 -2.937500 16.484375 -7.140625l0.000000 -1.750000q0.000000 -6.703125 -2.125000 -9.187500q-2.125000 -2.484375 -6.171875 -2.484375q-3.078125 0.000000 -4.890625 1.656250q-1.859375 1.656250 -1.859375 3.812500l0.109375 2.828125q0.000000 2.250000 -1.156250 3.468750q-1.140625 1.218750 -3.000000 1.218750q-1.812500 0.000000 -2.953125 -1.265625q-1.140625 -1.281250 -1.140625 -3.468750q0.000000 -4.203125 4.296875 -7.718750q4.296875 -3.515625 12.046875 -3.515625q5.968750 0.000000 9.765625 2.000000q2.890625 1.515625 4.250000 4.734375q0.890625 2.109375 0.890625 8.593750l0.000000 15.187500q0.000000 6.406250 0.234375 7.843750q0.250000 1.437500 0.812500 1.921875q0.562500 0.484375 1.296875 0.484375q0.781250 0.000000 1.359375 -0.328125q1.031250 -0.640625 3.953125 -3.578125l0.000000 2.734375q-5.468750 7.328125 -10.453125 7.328125q-2.390625 0.000000 -3.812500 -1.656250q-1.406250 -1.656250 -1.453125 -5.671875M28.468750 -9.625000l0.000000 -17.031250q-7.375000 2.921875 -9.515625 4.140625q-3.859375 2.156250 -5.531250 4.500000q-1.656250 2.343750 -1.656250 5.125000q0.000000 3.515625 2.093750 5.843750q2.109375 2.312500 4.843750 2.312500q3.703125 0.000000 9.765625 -4.890625"/>
<path id="c_d0a6f33bd79d803ea74f82975c16111d" d="M34.718750 -5.031250q-3.265625 3.421875 -6.390625 4.921875q-3.125000 1.484375 -6.750000 1.484375q-7.312500 0.000000 -12.781250 -6.125000q-5.468750 -6.140625 -5.468750 -15.765625q0.000000 -9.609375 6.046875 -17.593750q6.062500 -7.984375 15.578125 -7.984375q5.906250 0.000000 9.765625 3.765625l0.000000 -8.265625q0.000000 -7.656250 -0.375000 -9.406250q-0.359375 -1.765625 -1.140625 -2.390625q-0.781250 -0.640625 -1.953125 -0.640625q-1.265625 0.000000 -3.375000 0.781250l-0.625000 -1.718750l13.328125 -5.468750l2.203125 0.000000l0.000000 51.718750q0.000000 7.859375 0.359375 9.593750q0.359375 1.734375 1.171875 2.421875q0.812500 0.671875 1.875000 0.671875q1.328125 0.000000 3.515625 -0.828125l0.546875 1.703125l-13.281250 5.531250l-2.250000 0.000000zM34.718750 -8.453125l0.000000 -23.046875q-0.296875 -3.312500 -1.765625 -6.046875q-1.453125 -2.734375 -3.875000 -4.125000q-2.421875 -1.390625 -4.718750 -1.390625q-4.296875 0.000000 -7.656250 3.859375q-4.453125 5.078125 -4.453125 14.843750q0.000000 9.859375 4.296875 15.109375q4.296875 5.250000 9.578125 5.250000q4.437500 0.000000 8.593750 -4.453125"/>
<path id="c_bd3d1d3104897ee52dc883ab4165d1de" d="M14.500000 -69.437500q2.046875 0.000000 3.484375 1.453125q1.453125 1.437500 1.453125 3.484375q0.000000 2.046875 -1.453125 3.515625q-1.437500 1.468750 -3.484375 1.468750q-2.046875 0.000000 -3.515625 -1.468750q-1.468750 -1.468750 -1.468750 -3.515625q0.000000 -2.046875 1.437500 -3.484375q1.453125 -1.453125 3.546875 -1.453125M18.562500 -46.046875l0.000000 35.937500q0.000000 4.203125 0.609375 5.593750q0.609375 1.390625 1.796875 2.078125q1.203125 0.671875 4.375000 0.671875l0.000000 1.765625l-21.734375 0.000000l0.000000 -1.765625q3.281250 0.000000 4.390625 -0.625000q1.125000 -0.640625 1.781250 -2.093750q0.671875 -1.468750 0.671875 -5.625000l0.000000 -17.234375q0.000000 -7.281250 -0.437500 -9.421875q-0.343750 -1.562500 -1.078125 -2.171875q-0.734375 -0.609375 -2.000000 -0.609375q-1.375000 0.000000 -3.328125 0.734375l-0.671875 -1.765625l13.468750 -5.468750z"/>
<path id="c_8445673ce8146d53c62e137a9ee8f7a5" d="M32.031250 -46.046875l0.000000 15.234375l-1.609375 0.000000q-1.859375 -7.171875 -4.765625 -9.765625q-2.906250 -2.593750 -7.390625 -2.593750q-3.421875 0.000000 -5.531250 1.812500q-2.093750 1.812500 -2.093750 4.000000q0.000000 2.734375 1.562500 4.687500q1.515625 2.000000 6.156250 4.250000l7.125000 3.468750q9.921875 4.828125 9.921875 12.750000q0.000000 6.093750 -4.625000 9.843750q-4.609375 3.734375 -10.328125 3.734375q-4.093750 0.000000 -9.375000 -1.468750q-1.609375 -0.500000 -2.625000 -0.500000q-1.125000 0.000000 -1.765625 1.281250l-1.609375 0.000000l0.000000 -15.968750l1.609375 0.000000q1.375000 6.828125 5.218750 10.296875q3.859375 3.468750 8.656250 3.468750q3.359375 0.000000 5.484375 -1.968750q2.125000 -1.984375 2.125000 -4.765625q0.000000 -3.375000 -2.375000 -5.671875q-2.359375 -2.296875 -9.437500 -5.812500q-7.078125 -3.515625 -9.281250 -6.343750q-2.187500 -2.781250 -2.187500 -7.031250q0.000000 -5.515625 3.781250 -9.218750q3.781250 -3.718750 9.781250 -3.718750q2.640625 0.000000 6.406250 1.125000q2.484375 0.734375 3.312500 0.734375q0.781250 0.000000 1.218750 -0.343750q0.437500 -0.343750 1.031250 -1.515625z"/>
</defs>
<g style="fill: #000000; opacity: 1.000000" transform="translate(60.078125,172.734375)rotate(-90.0)scale(0.100000)">
<use xlink:href="#c_7e0d4decb5d3f7e7dfd0e4085e07e5cd"/>
<use xlink:href="#c_8f20758764ac743c2e0d8760a082d31c" x="88.916016"/>
<use xlink:href="#c_c63d997d1b9dff23cbba5e445fe5916f" x="133.300781"/>
<use xlink:href="#c_09c0ced85464b3e35e48217151d5e648" x="177.685547"/>
<use xlink:href="#c_d41d8cd98f00b204e9800998ecf8427e" x="227.685547"/>
<use xlink:href="#c_d0a6f33bd79d803ea74f82975c16111d" x="252.685547"/>
<use xlink:href="#c_bd3d1d3104897ee52dc883ab4165d1de" x="302.685547"/>
<use xlink:href="#c_8445673ce8146d53c62e137a9ee8f7a5" x="330.468750"/>
<use xlink:href="#c_796b7a757ae14324343502912cd3b0d7" x="369.384766"/>
<use xlink:href="#c_c63d997d1b9dff23cbba5e445fe5916f" x="397.167969"/>
<use xlink:href="#c_09c0ced85464b3e35e48217151d5e648" x="441.552734"/>
<use xlink:href="#c_6434c209dc220672c052910c6e627c24" x="491.552734"/>
<use xlink:href="#c_8f20758764ac743c2e0d8760a082d31c" x="535.937500"/>
</g>
</g>
</g>
<g id="patch3">
<path style="fill: none; stroke: #000000; stroke-width: 1.000000; stroke-linejoin: round; stroke-linecap: square;  opacity: 1.000000"  d="M81.000000 28.800000L309.272727 28.800000"/>
</g>
<g id="patch4">
<path style="fill: none; stroke: #000000; stroke-width: 1.000000; stroke-linejoin: round; stroke-linecap: square;  opacity: 1.000000"  d="M309.272727 259.200000L309.272727 28.800000"/>
</g>
<g id="patch5">
<path style="fill: none; stroke: #000000; stroke-width: 1.000000; stroke-linejoin: round; stroke-linecap: square;  opacity: 1.000000"  d="M81.000000 259.200000L309.272727 259.200000"/>
</g>
<g id="patch6">
<path style="fill: none; stroke: #000000; stroke-width: 1.000000; stroke-linejoin: round; stroke-linecap: square;  opacity: 1.000000"  d="M81.000000 259.200000L81.000000 28.800000"/>
</g>
<g id="text19">
<defs>
<path id="c_a7a6cc5dadcbf792a457e78f6908ca98" d="M2.250000 -67.390625l0.000000 -2.046875q7.421875 3.671875 12.343750 8.640625q6.984375 7.140625 10.796875 16.734375q3.812500 9.593750 3.812500 19.984375q0.000000 15.140625 -7.453125 27.609375q-7.437500 12.484375 -19.500000 17.859375l0.000000 -1.812500q6.000000 -3.359375 9.875000 -9.109375q3.890625 -5.734375 5.765625 -14.593750q1.890625 -8.859375 1.890625 -18.484375q0.000000 -10.406250 -1.609375 -19.000000q-1.234375 -6.734375 -3.062500 -10.781250q-1.828125 -4.062500 -4.859375 -7.812500q-3.015625 -3.765625 -8.000000 -7.187500"/>
<path id="c_a205bb1bf2ee98ee68969e8cd1ca8a5c" d="M20.453125 -62.593750l0.000000 26.015625l12.062500 0.000000q4.156250 0.000000 6.078125 -1.828125q1.937500 -1.828125 2.562500 -7.250000l1.812500 0.000000l0.000000 22.406250l-1.812500 0.000000q-0.046875 -3.843750 -1.000000 -5.656250q-0.953125 -1.812500 -2.640625 -2.703125q-1.671875 -0.906250 -5.000000 -0.906250l-12.062500 0.000000l0.000000 20.796875q0.000000 5.031250 0.640625 6.640625q0.484375 1.218750 2.046875 2.093750q2.156250 1.171875 4.500000 1.171875l2.390625 0.000000l0.000000 1.812500l-28.421875 0.000000l0.000000 -1.812500l2.343750 0.000000q4.109375 0.000000 5.953125 -2.390625q1.171875 -1.562500 1.171875 -7.515625l0.000000 -42.781250q0.000000 -5.015625 -0.625000 -6.640625q-0.484375 -1.218750 -2.000000 -2.093750q-2.109375 -1.171875 -4.500000 -1.171875l-2.343750 0.000000l0.000000 -1.812500l49.265625 0.000000l0.640625 14.562500l-1.703125 0.000000q-1.281250 -4.640625 -2.968750 -6.812500q-1.671875 -2.171875 -4.140625 -3.140625q-2.468750 -0.984375 -7.640625 -0.984375z"/>
<path id="c_476fad6fafc9f4271b6c7e734e26f0dc" d="M1.312500 -44.734375l21.046875 0.000000l0.000000 1.812500q-2.000000 0.000000 -2.812500 0.687500q-0.796875 0.687500 -0.796875 1.796875q0.000000 1.171875 1.703125 3.625000q0.546875 0.781250 1.625000 2.437500l3.171875 5.078125l3.656250 -5.078125q3.515625 -4.828125 3.515625 -6.109375q0.000000 -1.015625 -0.828125 -1.718750q-0.828125 -0.718750 -2.687500 -0.718750l0.000000 -1.812500l15.140625 0.000000l0.000000 1.812500q-2.390625 0.140625 -4.156250 1.312500q-2.390625 1.671875 -6.546875 7.234375l-6.093750 8.156250l11.125000 16.015625q4.109375 5.906250 5.859375 7.109375q1.765625 1.187500 4.546875 1.328125l0.000000 1.765625l-21.093750 0.000000l0.000000 -1.765625q2.203125 0.000000 3.421875 -0.968750q0.921875 -0.687500 0.921875 -1.812500q0.000000 -1.125000 -3.125000 -5.656250l-6.546875 -9.578125l-7.171875 9.578125q-3.328125 4.437500 -3.328125 5.265625q0.000000 1.171875 1.093750 2.125000q1.109375 0.953125 3.312500 1.046875l0.000000 1.765625l-14.609375 0.000000l0.000000 -1.765625q1.765625 -0.234375 3.078125 -1.218750q1.859375 -1.406250 6.250000 -7.218750l9.375000 -12.453125l-8.500000 -12.312500q-3.609375 -5.265625 -5.593750 -6.609375q-1.968750 -1.343750 -4.953125 -1.343750z"/>
<path id="c_75c5ee7810887a08a711e193dc25e9b4" d="M-0.093750 -40.281250l13.765625 -5.562500l1.859375 0.000000l0.000000 10.437500q3.468750 -5.906250 6.953125 -8.265625q3.500000 -2.375000 7.343750 -2.375000q6.750000 0.000000 11.234375 5.281250q5.515625 6.437500 5.515625 16.796875q0.000000 11.562500 -6.640625 19.140625q-5.468750 6.203125 -13.765625 6.203125q-3.609375 0.000000 -6.250000 -1.031250q-1.953125 -0.734375 -4.390625 -2.937500l0.000000 13.625000q0.000000 4.593750 0.562500 5.828125q0.562500 1.250000 1.953125 1.984375q1.390625 0.734375 5.046875 0.734375l0.000000 1.812500l-23.437500 0.000000l0.000000 -1.812500l1.218750 0.000000q2.687500 0.046875 4.593750 -1.015625q0.921875 -0.546875 1.437500 -1.750000q0.515625 -1.187500 0.515625 -6.062500l0.000000 -42.296875q0.000000 -4.343750 -0.390625 -5.515625q-0.390625 -1.171875 -1.250000 -1.750000q-0.843750 -0.593750 -2.312500 -0.593750q-1.171875 0.000000 -2.984375 0.687500zM15.531250 -32.515625l0.000000 16.687500q0.000000 5.421875 0.437500 7.140625q0.687500 2.828125 3.343750 4.984375q2.656250 2.140625 6.718750 2.140625q4.875000 0.000000 7.906250 -3.812500q3.953125 -4.984375 3.953125 -14.015625q0.000000 -10.250000 -4.484375 -15.765625q-3.125000 -3.812500 -7.421875 -3.812500q-2.343750 0.000000 -4.640625 1.171875q-1.765625 0.875000 -5.812500 5.281250"/>
</defs>
<g style="fill: #000000; opacity: 1.000000" transform="translate(160.651989,23.800000)scale(0.120000)">
<use xlink:href="#c_c63d997d1b9dff23cbba5e445fe5916f"/>
<use xlink:href="#c_a7a6cc5dadcbf792a457e78f6908ca98" x="44.384766"/>
<use xlink:href="#c_d41d8cd98f00b204e9800998ecf8427e" x="77.685547"/>
<use xlink:href="#c_a205bb1bf2ee98ee68969e8cd1ca8a5c" x="102.685547"/>
<use xlink:href="#c_bd3d1d3104897ee52dc883ab4165d1de" x="158.300781"/>
<use xlink:href="#c_476fad6fafc9f4271b6c7e734e26f0dc" x="186.083984"/>
<use xlink:href="#c_8f20758764ac743c2e0d8760a082d31c" x="236.083984"/>
<use xlink:href="#c_d0a6f33bd79d803ea74f82975c16111d" x="280.468750"/>
<use xlink:href="#c_d41d8cd98f00b204e9800998ecf8427e" x="330.468750"/>
<use xlink:href="#c_8445673ce8146d53c62e137a9ee8f7a5" x="355.468750"/>
<use xlink:href="#c_75c5ee7810887a08a711e193dc25e9b4" x="394.384766"/>
<use xlink:href="#c_c63d997d1b9dff23cbba5e445fe5916f" x="444.384766"/>
<use xlink:href="#c_6434c209dc220672c052910c6e627c24" x="488.769531"/>
<use xlink:href="#c_8f20758764ac743c2e0d8760a082d31c" x="533.154297"/>
</g>
</g>
</g>
<g id="axes2">
<g id="patch7">
<path style="fill: #ffffff; opacity: 1.000000"  d="M354.927273 259.200000L583.200000 259.200000L583.200000 28.800000
L354.927273 28.800000z"/>
</g>
<g id="line2d38">
<defs>
  <clipPath id="p8afe3dd41f807486199063d9e274ac85">
<rect x="354.927273" y="28.800000" width="228.272727" height="230.400000"/>
  </clipPath>
</defs><path style="fill: none; stroke: #75507b; stroke-width: 2.000000; stroke-linejoin: round; stroke-linecap: square;  opacity: 1.000000" clip-path="url(#p8afe3dd41f807486199063d9e274ac85)" d="M361.449351 257.261377L367.971429 256.837442L374.493506 256.654737
L381.015584 256.542551L387.537662 256.465682L394.059740 256.419353
L400.581818 256.432902L407.103896 256.396657L413.625974 256.363158
L420.148052 256.415577L426.670130 256.344415L433.192208 256.320648
L439.714286 256.319565L446.236364 256.327924L452.758442 256.324375
L459.280519 256.336440L465.802597 256.344249L472.324675 256.351712
L478.846753 256.299706L485.368831 256.304611L491.890909 256.324881
L498.412987 256.322986L504.935065 256.346711L511.457143 256.288346
L517.979221 256.329218L524.501299 256.313947L531.023377 256.295399
L537.545455 256.316175L544.067532 256.300017L550.589610 256.302447
L557.111688 256.307626L563.633766 256.329267"/>
</g>
<g id="line2d39">
<path style="fill: none; stroke: #729fcf; stroke-width: 2.000000; stroke-linejoin: round; stroke-linecap: square;  opacity: 1.000000" clip-path="url(#p8afe3dd41f807486199063d9e274ac85)" d="M361.449351 256.184514L367.971429 254.682602L374.493506 253.651884
L381.015584 252.812744L387.537662 252.113643L394.059740 251.364536
L400.581818 250.713944L407.103896 250.208708L413.625974 249.569521
L420.148052 249.203173L426.670130 248.706677L433.192208 248.323045
L439.714286 247.813804L446.236364 247.448977L452.758442 247.021619
L459.280519 246.637756L465.802597 246.369346L472.324675 246.042261
L478.846753 245.642595L485.368831 245.254856L491.890909 244.963845
L498.412987 244.672793L504.935065 244.294323L511.457143 244.101002
L517.979221 243.732342L524.501299 243.448384L531.023377 243.211345
L537.545455 242.903368L544.067532 242.570682L550.589610 242.409085
L557.111688 242.018492L563.633766 241.892130"/>
</g>
<g id="line2d40">
<path style="fill: none; stroke: #cc0000; stroke-width: 2.000000; stroke-linejoin: round; stroke-linecap: square;  opacity: 1.000000" clip-path="url(#p8afe3dd41f807486199063d9e274ac85)" d="M361.449351 254.756546L367.971429 251.792210L374.493506 249.181466
L381.015584 246.891226L387.537662 244.885736L394.059740 242.812797
L400.581818 241.005587L407.103896 239.118557L413.625974 237.363698
L420.148052 235.771789L426.670130 234.014191L433.192208 232.450392
L439.714286 230.773148L446.236364 229.309405L452.758442 227.828126
L459.280519 226.304057L465.802597 224.757198L472.324675 223.226244
L478.846753 222.001170L485.368831 220.633175L491.890909 219.246062
L498.412987 217.832085L504.935065 216.359996L511.457143 215.339858
L517.979221 213.892786L524.501299 212.681351L531.023377 211.203642
L537.545455 209.953914L544.067532 208.816014L550.589610 207.590084
L557.111688 206.095557L563.633766 205.117238"/>
</g>
<g id="line2d41">
<path style="fill: none; stroke: #f57900; stroke-width: 2.000000; stroke-linejoin: round; stroke-linecap: square;  opacity: 1.000000" clip-path="url(#p8afe3dd41f807486199063d9e274ac85)" d="M361.449351 252.688770L367.971429 247.667337L374.493506 243.189853
L381.015584 238.689852L387.537662 234.499627L394.059740 230.573558
L400.581818 226.531399L407.103896 222.776480L413.625974 218.949688
L420.148052 215.214768L426.670130 211.471183L433.192208 207.956956
L439.714286 204.607022L446.236364 201.101328L452.758442 197.283118
L459.280519 193.970831L465.802597 190.598793L472.324675 187.261776
L478.846753 183.900653L485.368831 180.507976L491.890909 177.373734
L498.412987 173.930096L504.935065 171.002671L511.457143 167.401665
L517.979221 164.514278L524.501299 161.042788L531.023377 158.038079
L537.545455 154.718904L544.067532 151.890683L550.589610 148.498122
L557.111688 145.570003L563.633766 142.312170"/>
</g>
<g id="line2d42">
<path style="fill: none; stroke: #3465a5; stroke-width: 2.000000; stroke-linejoin: round; stroke-linecap: square;  opacity: 1.000000" clip-path="url(#p8afe3dd41f807486199063d9e274ac85)" d="M361.449351 249.849549L367.971429 242.015466L374.493506 234.590195
L381.015584 227.484078L387.537662 220.405315L394.059740 213.412610
L400.581818 206.754354L407.103896 199.925254L413.625974 193.479584
L420.148052 186.713669L426.670130 180.306371L433.192208 173.889145
L439.714286 167.509527L446.236364 160.901713L452.758442 154.875182
L459.280519 148.637708L465.802597 142.373096L472.324675 135.950665
L478.846753 129.842652L485.368831 123.860050L491.890909 117.419849
L498.412987 111.394173L504.935065 105.233998L511.457143 99.212601
L517.979221 93.405158L524.501299 87.035458L531.023377 81.101443
L537.545455 75.552181L544.067532 69.143899L550.589610 63.242501
L557.111688 57.137258L563.633766 51.397942"/>
</g>
<g id="matplotlib.axis3">
<g id="xtick9">
<g id="line2d43">
<g ><use style="fill: none; stroke: #000000; stroke-width: 0.500000; stroke-linejoin: round; stroke-linecap: butt;  opacity: 1.000000" xlink:href="#m30e32995789d870ad79a2e54c91cf9c6" x="354.927273" y="259.200000"/>
</g></g>
<g id="line2d44">
<g ><use style="fill: none; stroke: #000000; stroke-width: 0.500000; stroke-linejoin: round; stroke-linecap: butt;  opacity: 1.000000" xlink:href="#m9281cae24120827b11d5ea8a7ad3e96b" x="354.927273" y="28.800000"/>
</g></g>
<g id="text20">
<g style="fill: #000000; opacity: 1.000000" transform="translate(352.786648,269.965625)scale(0.100000)">
<use xlink:href="#c_74ac5a75db101d5fb357b6c1cde42e77"/>
</g>
</g>
</g>
<g id="xtick10">
<g id="line2d45">
<g ><use style="fill: none; stroke: #000000; stroke-width: 0.500000; stroke-linejoin: round; stroke-linecap: butt;  opacity: 1.000000" xlink:href="#m30e32995789d870ad79a2e54c91cf9c6" x="387.537662" y="259.200000"/>
</g></g>
<g id="line2d46">
<g ><use style="fill: none; stroke: #000000; stroke-width: 0.500000; stroke-linejoin: round; stroke-linecap: butt;  opacity: 1.000000" xlink:href="#m9281cae24120827b11d5ea8a7ad3e96b" x="387.537662" y="28.800000"/>
</g></g>
<g id="text21">
<g style="fill: #000000; opacity: 1.000000" transform="translate(385.607975,269.825000)scale(0.100000)">
<use xlink:href="#c_a550b5130cb7fa1be2857f9dba682636"/>
</g>
</g>
</g>
<g id="xtick11">
<g id="line2d47">
<g ><use style="fill: none; stroke: #000000; stroke-width: 0.500000; stroke-linejoin: round; stroke-linecap: butt;  opacity: 1.000000" xlink:href="#m30e32995789d870ad79a2e54c91cf9c6" x="420.148052" y="259.200000"/>
</g></g>
<g id="line2d48">
<g ><use style="fill: none; stroke: #000000; stroke-width: 0.500000; stroke-linejoin: round; stroke-linecap: butt;  opacity: 1.000000" xlink:href="#m9281cae24120827b11d5ea8a7ad3e96b" x="420.148052" y="28.800000"/>
</g></g>
<g id="text22">
<g style="fill: #000000; opacity: 1.000000" transform="translate(415.913677,269.965625)scale(0.100000)">
<use xlink:href="#c_a79047214c7b97ce8afcc2ff740aa642"/>
<use xlink:href="#c_74ac5a75db101d5fb357b6c1cde42e77" x="50.000000"/>
</g>
</g>
</g>
<g id="xtick12">
<g id="line2d49">
<g ><use style="fill: none; stroke: #000000; stroke-width: 0.500000; stroke-linejoin: round; stroke-linecap: butt;  opacity: 1.000000" xlink:href="#m30e32995789d870ad79a2e54c91cf9c6" x="452.758442" y="259.200000"/>
</g></g>
<g id="line2d50">
<g ><use style="fill: none; stroke: #000000; stroke-width: 0.500000; stroke-linejoin: round; stroke-linecap: butt;  opacity: 1.000000" xlink:href="#m9281cae24120827b11d5ea8a7ad3e96b" x="452.758442" y="28.800000"/>
</g></g>
<g id="text23">
<g style="fill: #000000; opacity: 1.000000" transform="translate(448.672504,269.965625)scale(0.100000)">
<use xlink:href="#c_a79047214c7b97ce8afcc2ff740aa642"/>
<use xlink:href="#c_a550b5130cb7fa1be2857f9dba682636" x="50.000000"/>
</g>
</g>
</g>
<g id="xtick13">
<g id="line2d51">
<g ><use style="fill: none; stroke: #000000; stroke-width: 0.500000; stroke-linejoin: round; stroke-linecap: butt;  opacity: 1.000000" xlink:href="#m30e32995789d870ad79a2e54c91cf9c6" x="485.368831" y="259.200000"/>
</g></g>
<g id="line2d52">
<g ><use style="fill: none; stroke: #000000; stroke-width: 0.500000; stroke-linejoin: round; stroke-linecap: butt;  opacity: 1.000000" xlink:href="#m9281cae24120827b11d5ea8a7ad3e96b" x="485.368831" y="28.800000"/>
</g></g>
<g id="text24">
<g style="fill: #000000; opacity: 1.000000" transform="translate(480.657894,269.965625)scale(0.100000)">
<use xlink:href="#c_ab771c85abf45b6b1a4f101d65f6d17d"/>
<use xlink:href="#c_74ac5a75db101d5fb357b6c1cde42e77" x="50.000000"/>
</g>
</g>
</g>
<g id="xtick14">
<g id="line2d53">
<g ><use style="fill: none; stroke: #000000; stroke-width: 0.500000; stroke-linejoin: round; stroke-linecap: butt;  opacity: 1.000000" xlink:href="#m30e32995789d870ad79a2e54c91cf9c6" x="517.979221" y="259.200000"/>
</g></g>
<g id="line2d54">
<g ><use style="fill: none; stroke: #000000; stroke-width: 0.500000; stroke-linejoin: round; stroke-linecap: butt;  opacity: 1.000000" xlink:href="#m9281cae24120827b11d5ea8a7ad3e96b" x="517.979221" y="28.800000"/>
</g></g>
<g id="text25">
<g style="fill: #000000; opacity: 1.000000" transform="translate(513.416721,269.965625)scale(0.100000)">
<use xlink:href="#c_ab771c85abf45b6b1a4f101d65f6d17d"/>
<use xlink:href="#c_a550b5130cb7fa1be2857f9dba682636" x="50.000000"/>
</g>
</g>
</g>
<g id="xtick15">
<g id="line2d55">
<g ><use style="fill: none; stroke: #000000; stroke-width: 0.500000; stroke-linejoin: round; stroke-linecap: butt;  opacity: 1.000000" xlink:href="#m30e32995789d870ad79a2e54c91cf9c6" x="550.589610" y="259.200000"/>
</g></g>
<g id="line2d56">
<g ><use style="fill: none; stroke: #000000; stroke-width: 0.500000; stroke-linejoin: round; stroke-linecap: butt;  opacity: 1.000000" xlink:href="#m9281cae24120827b11d5ea8a7ad3e96b" x="550.589610" y="28.800000"/>
</g></g>
<g id="text26">
<g style="fill: #000000; opacity: 1.000000" transform="translate(545.972423,269.965625)scale(0.100000)">
<use xlink:href="#c_eb11c166319a854e2eb2b820842f2c4b"/>
<use xlink:href="#c_74ac5a75db101d5fb357b6c1cde42e77" x="50.000000"/>
</g>
</g>
</g>
<g id="xtick16">
<g id="line2d57">
<g ><use style="fill: none; stroke: #000000; stroke-width: 0.500000; stroke-linejoin: round; stroke-linecap: butt;  opacity: 1.000000" xlink:href="#m30e32995789d870ad79a2e54c91cf9c6" x="583.200000" y="259.200000"/>
</g></g>
<g id="line2d58">
<g ><use style="fill: none; stroke: #000000; stroke-width: 0.500000; stroke-linejoin: round; stroke-linecap: butt;  opacity: 1.000000" xlink:href="#m9281cae24120827b11d5ea8a7ad3e96b" x="583.200000" y="28.800000"/>
</g></g>
<g id="text27">
<g style="fill: #000000; opacity: 1.000000" transform="translate(578.731250,269.965625)scale(0.100000)">
<use xlink:href="#c_eb11c166319a854e2eb2b820842f2c4b"/>
<use xlink:href="#c_a550b5130cb7fa1be2857f9dba682636" x="50.000000"/>
</g>
</g>
</g>
<g id="text28">
<g style="fill: #000000; opacity: 1.000000" transform="translate(436.188636,282.028125)scale(0.100000)">
<use xlink:href="#c_3ed1bbae7776598d9f74b8b8e4aaf429"/>
<use xlink:href="#c_8f20758764ac743c2e0d8760a082d31c" x="55.615234"/>
<use xlink:href="#c_5f0097d572a3190dbe480c5b89bfc8c9" x="100.000000"/>
<use xlink:href="#c_a45591283f72e33cfd85399e16cbbfd8" x="150.000000"/>
<use xlink:href="#c_8f20758764ac743c2e0d8760a082d31c" x="200.000000"/>
<use xlink:href="#c_09c0ced85464b3e35e48217151d5e648" x="244.384766"/>
<use xlink:href="#c_6434c209dc220672c052910c6e627c24" x="294.384766"/>
<use xlink:href="#c_8f20758764ac743c2e0d8760a082d31c" x="338.769531"/>
<use xlink:href="#c_d41d8cd98f00b204e9800998ecf8427e" x="383.154297"/>
<use xlink:href="#c_13313eaa25646cd9cbc2b9f6e5a25a7c" x="408.154297"/>
<use xlink:href="#c_8f20758764ac743c2e0d8760a082d31c" x="435.937500"/>
<use xlink:href="#c_09c0ced85464b3e35e48217151d5e648" x="480.322266"/>
<use xlink:href="#c_c0f2fcec17a4fe8358ab541eeed15ab4" x="530.322266"/>
<use xlink:href="#c_796b7a757ae14324343502912cd3b0d7" x="580.322266"/>
<use xlink:href="#c_e0b0d663e581e507f32c0e025d1f75eb" x="608.105469"/>
</g>
</g>
</g>
<g id="matplotlib.axis4">
<g id="ytick9">
<g id="line2d59">
<g ><use style="fill: none; stroke: #000000; stroke-width: 0.500000; stroke-linejoin: round; stroke-linecap: butt;  opacity: 1.000000" xlink:href="#m3400efa6b1638b3fea9e19e898273957" x="354.927273" y="259.200000"/>
</g></g>
<g id="line2d60">
<g ><use style="fill: none; stroke: #000000; stroke-width: 0.500000; stroke-linejoin: round; stroke-linecap: butt;  opacity: 1.000000" xlink:href="#m20b58b2501143cb5e0a5e8f1ef6f1643" x="583.200000" y="259.200000"/>
</g></g>
<g id="text29">
<g style="fill: #000000; opacity: 1.000000" transform="translate(346.646023,262.520312)scale(0.100000)">
<use xlink:href="#c_74ac5a75db101d5fb357b6c1cde42e77"/>
</g>
</g>
</g>
<g id="ytick10">
<g id="line2d61">
<g ><use style="fill: none; stroke: #000000; stroke-width: 0.500000; stroke-linejoin: round; stroke-linecap: butt;  opacity: 1.000000" xlink:href="#m3400efa6b1638b3fea9e19e898273957" x="354.927273" y="230.400000"/>
</g></g>
<g id="line2d62">
<g ><use style="fill: none; stroke: #000000; stroke-width: 0.500000; stroke-linejoin: round; stroke-linecap: butt;  opacity: 1.000000" xlink:href="#m20b58b2501143cb5e0a5e8f1ef6f1643" x="583.200000" y="230.400000"/>
</g></g>
<g id="text30">
<g style="fill: #000000; opacity: 1.000000" transform="translate(342.458523,233.720313)scale(0.100000)">
<use xlink:href="#c_a79047214c7b97ce8afcc2ff740aa642"/>
<use xlink:href="#c_74ac5a75db101d5fb357b6c1cde42e77" x="50.000000"/>
</g>
</g>
</g>
<g id="ytick11">
<g id="line2d63">
<g ><use style="fill: none; stroke: #000000; stroke-width: 0.500000; stroke-linejoin: round; stroke-linecap: butt;  opacity: 1.000000" xlink:href="#m3400efa6b1638b3fea9e19e898273957" x="354.927273" y="201.600000"/>
</g></g>
<g id="line2d64">
<g ><use style="fill: none; stroke: #000000; stroke-width: 0.500000; stroke-linejoin: round; stroke-linecap: butt;  opacity: 1.000000" xlink:href="#m20b58b2501143cb5e0a5e8f1ef6f1643" x="583.200000" y="201.600000"/>
</g></g>
<g id="text31">
<g style="fill: #000000; opacity: 1.000000" transform="translate(341.505398,204.920312)scale(0.100000)">
<use xlink:href="#c_ab771c85abf45b6b1a4f101d65f6d17d"/>
<use xlink:href="#c_74ac5a75db101d5fb357b6c1cde42e77" x="50.000000"/>
</g>
</g>
</g>
<g id="ytick12">
<g id="line2d65">
<g ><use style="fill: none; stroke: #000000; stroke-width: 0.500000; stroke-linejoin: round; stroke-linecap: butt;  opacity: 1.000000" xlink:href="#m3400efa6b1638b3fea9e19e898273957" x="354.927273" y="172.800000"/>
</g></g>
<g id="line2d66">
<g ><use style="fill: none; stroke: #000000; stroke-width: 0.500000; stroke-linejoin: round; stroke-linecap: butt;  opacity: 1.000000" xlink:href="#m20b58b2501143cb5e0a5e8f1ef6f1643" x="583.200000" y="172.800000"/>
</g></g>
<g id="text32">
<g style="fill: #000000; opacity: 1.000000" transform="translate(341.692898,176.120313)scale(0.100000)">
<use xlink:href="#c_eb11c166319a854e2eb2b820842f2c4b"/>
<use xlink:href="#c_74ac5a75db101d5fb357b6c1cde42e77" x="50.000000"/>
</g>
</g>
</g>
<g id="ytick13">
<g id="line2d67">
<g ><use style="fill: none; stroke: #000000; stroke-width: 0.500000; stroke-linejoin: round; stroke-linecap: butt;  opacity: 1.000000" xlink:href="#m3400efa6b1638b3fea9e19e898273957" x="354.927273" y="144.000000"/>
</g></g>
<g id="line2d68">
<g ><use style="fill: none; stroke: #000000; stroke-width: 0.500000; stroke-linejoin: round; stroke-linecap: butt;  opacity: 1.000000" xlink:href="#m20b58b2501143cb5e0a5e8f1ef6f1643" x="583.200000" y="144.000000"/>
</g></g>
<g id="text33">
<defs>
<path id="c_c9ade428cc3bd6556344e79dbb3c506c" d="M46.531250 -24.421875l0.000000 6.937500l-8.890625 0.000000l0.000000 17.484375l-8.046875 0.000000l0.000000 -17.484375l-28.031250 0.000000l0.000000 -6.250000l30.718750 -43.843750l5.359375 0.000000l0.000000 43.156250zM29.593750 -24.421875l0.000000 -32.859375l-23.250000 32.859375z"/>
</defs>
<g style="fill: #000000; opacity: 1.000000" transform="translate(341.442898,147.320312)scale(0.100000)">
<use xlink:href="#c_c9ade428cc3bd6556344e79dbb3c506c"/>
<use xlink:href="#c_74ac5a75db101d5fb357b6c1cde42e77" x="50.000000"/>
</g>
</g>
</g>
<g id="ytick14">
<g id="line2d69">
<g ><use style="fill: none; stroke: #000000; stroke-width: 0.500000; stroke-linejoin: round; stroke-linecap: butt;  opacity: 1.000000" xlink:href="#m3400efa6b1638b3fea9e19e898273957" x="354.927273" y="115.200000"/>
</g></g>
<g id="line2d70">
<g ><use style="fill: none; stroke: #000000; stroke-width: 0.500000; stroke-linejoin: round; stroke-linecap: butt;  opacity: 1.000000" xlink:href="#m20b58b2501143cb5e0a5e8f1ef6f1643" x="583.200000" y="115.200000"/>
</g></g>
<g id="text34">
<g style="fill: #000000; opacity: 1.000000" transform="translate(341.771023,118.520312)scale(0.100000)">
<use xlink:href="#c_a550b5130cb7fa1be2857f9dba682636"/>
<use xlink:href="#c_74ac5a75db101d5fb357b6c1cde42e77" x="50.000000"/>
</g>
</g>
</g>
<g id="ytick15">
<g id="line2d71">
<g ><use style="fill: none; stroke: #000000; stroke-width: 0.500000; stroke-linejoin: round; stroke-linecap: butt;  opacity: 1.000000" xlink:href="#m3400efa6b1638b3fea9e19e898273957" x="354.927273" y="86.400000"/>
</g></g>
<g id="line2d72">
<g ><use style="fill: none; stroke: #000000; stroke-width: 0.500000; stroke-linejoin: round; stroke-linecap: butt;  opacity: 1.000000" xlink:href="#m20b58b2501143cb5e0a5e8f1ef6f1643" x="583.200000" y="86.400000"/>
</g></g>
<g id="text35">
<defs>
<path id="c_33db4b510d90c6be72c3cf0c1276ae6e" d="M44.828125 -67.578125l0.000000 1.812500q-6.453125 0.625000 -10.531250 2.562500q-4.078125 1.921875 -8.062500 5.875000q-3.968750 3.953125 -6.578125 8.812500q-2.609375 4.859375 -4.375000 11.546875q7.031250 -4.828125 14.109375 -4.828125q6.796875 0.000000 11.765625 5.468750q4.984375 5.468750 4.984375 14.062500q0.000000 8.296875 -5.031250 15.140625q-6.046875 8.296875 -16.015625 8.296875q-6.781250 0.000000 -11.515625 -4.500000q-9.281250 -8.734375 -9.281250 -22.656250q0.000000 -8.875000 3.562500 -16.875000q3.562500 -8.015625 10.171875 -14.218750q6.625000 -6.203125 12.671875 -8.343750q6.062500 -2.156250 11.296875 -2.156250zM14.453125 -33.406250q-0.875000 6.593750 -0.875000 10.656250q0.000000 4.687500 1.734375 10.187500q1.734375 5.484375 5.140625 8.703125q2.500000 2.296875 6.062500 2.296875q4.250000 0.000000 7.593750 -4.000000q3.343750 -4.015625 3.343750 -11.437500q0.000000 -8.343750 -3.328125 -14.437500q-3.312500 -6.109375 -9.421875 -6.109375q-1.843750 0.000000 -3.968750 0.781250q-2.125000 0.781250 -6.281250 3.359375"/>
</defs>
<g style="fill: #000000; opacity: 1.000000" transform="translate(341.724148,89.720313)scale(0.100000)">
<use xlink:href="#c_33db4b510d90c6be72c3cf0c1276ae6e"/>
<use xlink:href="#c_74ac5a75db101d5fb357b6c1cde42e77" x="50.000000"/>
</g>
</g>
</g>
<g id="ytick16">
<g id="line2d73">
<g ><use style="fill: none; stroke: #000000; stroke-width: 0.500000; stroke-linejoin: round; stroke-linecap: butt;  opacity: 1.000000" xlink:href="#m3400efa6b1638b3fea9e19e898273957" x="354.927273" y="57.600000"/>
</g></g>
<g id="line2d74">
<g ><use style="fill: none; stroke: #000000; stroke-width: 0.500000; stroke-linejoin: round; stroke-linecap: butt;  opacity: 1.000000" xlink:href="#m20b58b2501143cb5e0a5e8f1ef6f1643" x="583.200000" y="57.600000"/>
</g></g>
<g id="text36">
<defs>
<path id="c_c53ac08436a890cc886f92cf077511a5" d="M10.062500 -66.218750l35.500000 0.000000l0.000000 1.859375l-22.078125 65.734375l-5.468750 0.000000l19.781250 -59.625000l-18.218750 0.000000q-5.515625 0.000000 -7.859375 1.312500q-4.093750 2.250000 -6.593750 6.937500l-1.406250 -0.531250z"/>
</defs>
<g style="fill: #000000; opacity: 1.000000" transform="translate(341.661648,60.912500)scale(0.100000)">
<use xlink:href="#c_c53ac08436a890cc886f92cf077511a5"/>
<use xlink:href="#c_74ac5a75db101d5fb357b6c1cde42e77" x="50.000000"/>
</g>
</g>
</g>
<g id="ytick17">
<g id="line2d75">
<g ><use style="fill: none; stroke: #000000; stroke-width: 0.500000; stroke-linejoin: round; stroke-linecap: butt;  opacity: 1.000000" xlink:href="#m3400efa6b1638b3fea9e19e898273957" x="354.927273" y="28.800000"/>
</g></g>
<g id="line2d76">
<g ><use style="fill: none; stroke: #000000; stroke-width: 0.500000; stroke-linejoin: round; stroke-linecap: butt;  opacity: 1.000000" xlink:href="#m20b58b2501143cb5e0a5e8f1ef6f1643" x="583.200000" y="28.800000"/>
</g></g>
<g id="text37">
<defs>
<path id="c_2864600684e452c769b51d99fb1fd4cf" d="M19.187500 -33.343750q-7.859375 -6.453125 -10.140625 -10.359375q-2.265625 -3.906250 -2.265625 -8.109375q0.000000 -6.437500 4.984375 -11.093750q4.984375 -4.671875 13.234375 -4.671875q8.015625 0.000000 12.890625 4.343750q4.890625 4.343750 4.890625 9.906250q0.000000 3.718750 -2.640625 7.578125q-2.640625 3.859375 -10.984375 9.078125q8.593750 6.640625 11.375000 10.453125q3.703125 4.984375 3.703125 10.500000q0.000000 6.984375 -5.328125 11.937500q-5.312500 4.953125 -13.953125 4.953125q-9.421875 0.000000 -14.703125 -5.906250q-4.187500 -4.734375 -4.187500 -10.359375q0.000000 -4.390625 2.953125 -8.703125q2.953125 -4.328125 10.171875 -9.546875M26.859375 -38.578125q5.859375 -5.265625 7.421875 -8.312500q1.562500 -3.062500 1.562500 -6.921875q0.000000 -5.125000 -2.890625 -8.031250q-2.875000 -2.906250 -7.859375 -2.906250q-4.968750 0.000000 -8.093750 2.890625q-3.125000 2.875000 -3.125000 6.734375q0.000000 2.531250 1.281250 5.078125q1.296875 2.531250 3.687500 4.828125zM21.484375 -31.500000q-4.046875 3.421875 -6.000000 7.453125q-1.953125 4.031250 -1.953125 8.718750q0.000000 6.296875 3.437500 10.078125q3.437500 3.781250 8.765625 3.781250q5.265625 0.000000 8.437500 -2.968750q3.187500 -2.984375 3.187500 -7.234375q0.000000 -3.515625 -1.859375 -6.296875q-3.468750 -5.171875 -14.015625 -13.531250"/>
</defs>
<g style="fill: #000000; opacity: 1.000000" transform="translate(341.896023,32.120312)scale(0.100000)">
<use xlink:href="#c_2864600684e452c769b51d99fb1fd4cf"/>
<use xlink:href="#c_74ac5a75db101d5fb357b6c1cde42e77" x="50.000000"/>
</g>
</g>
</g>
<g id="text38">
<g style="fill: #000000; opacity: 1.000000" transform="translate(336.442898,172.734375)rotate(-90.0)scale(0.100000)">
<use xlink:href="#c_7e0d4decb5d3f7e7dfd0e4085e07e5cd"/>
<use xlink:href="#c_8f20758764ac743c2e0d8760a082d31c" x="88.916016"/>
<use xlink:href="#c_c63d997d1b9dff23cbba5e445fe5916f" x="133.300781"/>
<use xlink:href="#c_09c0ced85464b3e35e48217151d5e648" x="177.685547"/>
<use xlink:href="#c_d41d8cd98f00b204e9800998ecf8427e" x="227.685547"/>
<use xlink:href="#c_d0a6f33bd79d803ea74f82975c16111d" x="252.685547"/>
<use xlink:href="#c_bd3d1d3104897ee52dc883ab4165d1de" x="302.685547"/>
<use xlink:href="#c_8445673ce8146d53c62e137a9ee8f7a5" x="330.468750"/>
<use xlink:href="#c_796b7a757ae14324343502912cd3b0d7" x="369.384766"/>
<use xlink:href="#c_c63d997d1b9dff23cbba5e445fe5916f" x="397.167969"/>
<use xlink:href="#c_09c0ced85464b3e35e48217151d5e648" x="441.552734"/>
<use xlink:href="#c_6434c209dc220672c052910c6e627c24" x="491.552734"/>
<use xlink:href="#c_8f20758764ac743c2e0d8760a082d31c" x="535.937500"/>
</g>
</g>
</g>
<g id="patch8">
<path style="fill: none; stroke: #000000; stroke-width: 1.000000; stroke-linejoin: round; stroke-linecap: square;  opacity: 1.000000"  d="M354.927273 28.800000L583.200000 28.800000"/>
</g>
<g id="patch9">
<path style="fill: none; stroke: #000000; stroke-width: 1.000000; stroke-linejoin: round; stroke-linecap: square;  opacity: 1.000000"  d="M583.200000 259.200000L583.200000 28.800000"/>
</g>
<g id="patch10">
<path style="fill: none; stroke: #000000; stroke-width: 1.000000; stroke-linejoin: round; stroke-linecap: square;  opacity: 1.000000"  d="M354.927273 259.200000L583.200000 259.200000"/>
</g>
<g id="patch11">
<path style="fill: none; stroke: #000000; stroke-width: 1.000000; stroke-linejoin: round; stroke-linecap: square;  opacity: 1.000000"  d="M354.927273 259.200000L354.927273 28.800000"/>
</g>
<g id="text39">
<defs>
<path id="c_35d3b561a7e788acfdcf19b04f5451a6" d="M15.375000 -37.015625q6.500000 -9.031250 14.015625 -9.031250q6.890625 0.000000 12.015625 5.890625q5.125000 5.875000 5.125000 16.078125q0.000000 11.921875 -7.906250 19.187500q-6.781250 6.265625 -15.140625 6.265625q-3.906250 0.000000 -7.937500 -1.421875q-4.015625 -1.421875 -8.218750 -4.250000l0.000000 -46.343750q0.000000 -7.609375 -0.375000 -9.359375q-0.359375 -1.765625 -1.140625 -2.390625q-0.781250 -0.640625 -1.953125 -0.640625q-1.375000 0.000000 -3.421875 0.781250l-0.687500 -1.718750l13.437500 -5.468750l2.187500 0.000000zM15.375000 -33.890625l0.000000 26.765625q2.500000 2.437500 5.156250 3.687500q2.656250 1.234375 5.453125 1.234375q4.437500 0.000000 8.265625 -4.875000q3.843750 -4.890625 3.843750 -14.218750q0.000000 -8.593750 -3.843750 -13.203125q-3.828125 -4.609375 -8.718750 -4.609375q-2.578125 0.000000 -5.171875 1.312500q-1.953125 0.984375 -4.984375 3.906250"/>
<path id="c_13be7644994ee7b9e9f6d60867943e20" d="M61.375000 -67.718750l1.718750 20.890625l-1.718750 0.000000q-2.578125 -7.812500 -6.687500 -11.765625q-5.906250 -5.718750 -15.187500 -5.718750q-12.640625 0.000000 -19.234375 10.015625q-5.515625 8.453125 -5.515625 20.109375q0.000000 9.484375 3.656250 17.296875q3.671875 7.812500 9.593750 11.453125q5.937500 3.625000 12.187500 3.625000q3.656250 0.000000 7.078125 -0.921875q3.421875 -0.921875 6.593750 -2.734375l0.000000 -19.140625q0.000000 -4.984375 -0.765625 -6.515625q-0.750000 -1.546875 -2.343750 -2.343750q-1.578125 -0.812500 -5.578125 -0.812500l0.000000 -1.859375l25.625000 0.000000l0.000000 1.859375l-1.218750 0.000000q-3.812500 0.000000 -5.218750 2.546875q-0.984375 1.796875 -0.984375 7.125000l0.000000 20.265625q-5.609375 3.031250 -11.078125 4.437500q-5.468750 1.421875 -12.156250 1.421875q-19.187500 0.000000 -29.156250 -12.312500q-7.468750 -9.218750 -7.468750 -21.281250q0.000000 -8.750000 4.203125 -16.750000q4.984375 -9.515625 13.671875 -14.656250q7.265625 -4.234375 17.187500 -4.234375q3.609375 0.000000 6.562500 0.593750q2.953125 0.578125 8.375000 2.578125q2.734375 1.015625 3.656250 1.015625q0.937500 0.000000 1.593750 -0.843750q0.656250 -0.859375 0.812500 -3.343750z"/>
<path id="c_16bd732ad8dc43d9da5a6883e316c3e3" d="M16.218750 -46.046875l0.000000 10.062500q5.609375 -10.062500 11.515625 -10.062500q2.687500 0.000000 4.437500 1.640625q1.765625 1.625000 1.765625 3.781250q0.000000 1.906250 -1.281250 3.234375q-1.265625 1.312500 -3.015625 1.312500q-1.703125 0.000000 -3.828125 -1.687500q-2.125000 -1.687500 -3.156250 -1.687500q-0.875000 0.000000 -1.906250 0.968750q-2.187500 2.015625 -4.531250 6.593750l0.000000 21.437500q0.000000 3.718750 0.921875 5.625000q0.640625 1.312500 2.250000 2.187500q1.609375 0.875000 4.640625 0.875000l0.000000 1.765625l-22.906250 0.000000l0.000000 -1.765625q3.421875 0.000000 5.078125 -1.062500q1.218750 -0.781250 1.703125 -2.500000q0.250000 -0.828125 0.250000 -4.734375l0.000000 -17.328125q0.000000 -7.812500 -0.328125 -9.296875q-0.312500 -1.500000 -1.171875 -2.171875q-0.843750 -0.687500 -2.109375 -0.687500q-1.515625 0.000000 -3.421875 0.734375l-0.484375 -1.765625l13.515625 -5.468750z"/>
<path id="c_13d3e685a2d88a192cede84aec6ecbba" d="M25.000000 -46.046875q10.156250 0.000000 16.312500 7.718750q5.218750 6.593750 5.218750 15.140625q0.000000 6.000000 -2.890625 12.156250q-2.875000 6.140625 -7.921875 9.281250q-5.046875 3.125000 -11.250000 3.125000q-10.109375 0.000000 -16.062500 -8.062500q-5.031250 -6.796875 -5.031250 -15.234375q0.000000 -6.156250 3.046875 -12.234375q3.046875 -6.078125 8.031250 -8.984375q4.984375 -2.906250 10.546875 -2.906250M23.484375 -42.875000q-2.578125 0.000000 -5.203125 1.546875q-2.609375 1.531250 -4.218750 5.390625q-1.609375 3.859375 -1.609375 9.906250q0.000000 9.765625 3.875000 16.859375q3.890625 7.078125 10.234375 7.078125q4.734375 0.000000 7.812500 -3.906250q3.078125 -3.906250 3.078125 -13.437500q0.000000 -11.906250 -5.125000 -18.750000q-3.468750 -4.687500 -8.843750 -4.687500"/>
<path id="c_3d31ca6f2c3e6141418596e48d1f7dab" d="M0.640625 -44.734375l18.750000 0.000000l0.000000 1.812500q-2.593750 0.203125 -3.406250 0.937500q-0.796875 0.718750 -0.796875 2.093750q0.000000 1.515625 0.828125 3.656250l9.578125 25.734375l9.609375 -20.953125l-2.531250 -6.578125q-1.171875 -2.937500 -3.078125 -4.062500q-1.078125 -0.687500 -4.000000 -0.828125l0.000000 -1.812500l21.281250 0.000000l0.000000 1.812500q-3.515625 0.140625 -4.984375 1.265625q-0.968750 0.781250 -0.968750 2.500000q0.000000 0.968750 0.390625 2.000000l10.156250 25.687500l9.421875 -24.765625q0.968750 -2.640625 0.968750 -4.203125q0.000000 -0.921875 -0.953125 -1.656250q-0.937500 -0.734375 -3.734375 -0.828125l0.000000 -1.812500l14.125000 0.000000l0.000000 1.812500q-4.250000 0.640625 -6.250000 5.765625l-14.953125 38.531250l-2.000000 0.000000l-11.171875 -28.578125l-13.046875 28.578125l-1.796875 0.000000l-14.359375 -37.609375q-1.421875 -3.562500 -2.796875 -4.796875q-1.359375 -1.250000 -4.281250 -1.890625z"/>
</defs>
<g style="fill: #000000; opacity: 1.000000" transform="translate(426.555824,23.800000)scale(0.120000)">
<use xlink:href="#c_35d3b561a7e788acfdcf19b04f5451a6"/>
<use xlink:href="#c_a7a6cc5dadcbf792a457e78f6908ca98" x="50.000000"/>
<use xlink:href="#c_d41d8cd98f00b204e9800998ecf8427e" x="83.300781"/>
<use xlink:href="#c_13be7644994ee7b9e9f6d60867943e20" x="108.300781"/>
<use xlink:href="#c_16bd732ad8dc43d9da5a6883e316c3e3" x="180.517578"/>
<use xlink:href="#c_13d3e685a2d88a192cede84aec6ecbba" x="213.818359"/>
<use xlink:href="#c_3d31ca6f2c3e6141418596e48d1f7dab" x="263.818359"/>
<use xlink:href="#c_bd3d1d3104897ee52dc883ab4165d1de" x="336.035156"/>
<use xlink:href="#c_09c0ced85464b3e35e48217151d5e648" x="363.818359"/>
<use xlink:href="#c_c0f2fcec17a4fe8358ab541eeed15ab4" x="413.818359"/>
<use xlink:href="#c_d41d8cd98f00b204e9800998ecf8427e" x="463.818359"/>
<use xlink:href="#c_8445673ce8146d53c62e137a9ee8f7a5" x="488.818359"/>
<use xlink:href="#c_75c5ee7810887a08a711e193dc25e9b4" x="527.734375"/>
<use xlink:href="#c_c63d997d1b9dff23cbba5e445fe5916f" x="577.734375"/>
<use xlink:href="#c_6434c209dc220672c052910c6e627c24" x="622.119141"/>
<use xlink:href="#c_8f20758764ac743c2e0d8760a082d31c" x="666.503906"/>
</g>
</g>
<g id="legend1">
<g id="patch12">
<path style="fill: #ffffff; stroke: #000000; stroke-width: 1.000000; stroke-linejoin: round; stroke-linecap: square;  opacity: 1.000000"  d="M363.327273 135.868750L439.361648 135.868750
Q441.761648 135.868750 441.761648 133.468750L441.761648 37.200000
Q441.761648 34.800000 439.361648 34.800000L363.327273 34.800000
Q360.927273 34.800000 360.927273 37.200000L360.927273 133.468750
Q360.927273 135.868750 363.327273 135.868750z"/>
</g>
<g id="text40">
<defs>
<path id="c_ee5fd3ab2ebc85469395f8bcf4d8a3ec" d="M-1.312500 -66.218750l17.968750 0.000000l40.468750 49.671875l0.000000 -38.187500q0.000000 -6.109375 -1.359375 -7.625000q-1.812500 -2.046875 -5.718750 -2.046875l-2.296875 0.000000l0.000000 -1.812500l23.046875 0.000000l0.000000 1.812500l-2.343750 0.000000q-4.187500 0.000000 -5.953125 2.546875q-1.078125 1.562500 -1.078125 7.125000l0.000000 55.812500l-1.750000 0.000000l-43.656250 -53.328125l0.000000 40.781250q0.000000 6.093750 1.312500 7.609375q1.859375 2.046875 5.718750 2.046875l2.343750 0.000000l0.000000 1.812500l-23.046875 0.000000l0.000000 -1.812500l2.296875 0.000000q4.250000 0.000000 6.000000 -2.531250q1.078125 -1.562500 1.078125 -7.125000l0.000000 -46.046875q-2.875000 -3.375000 -4.375000 -4.437500q-1.484375 -1.078125 -4.359375 -2.015625q-1.421875 -0.437500 -4.296875 -0.437500z"/>
<path id="c_98afb1f96227a5a1112a15d34f348150" d="M20.609375 -41.218750l0.000000 29.406250q0.000000 6.250000 1.359375 7.906250q1.812500 2.140625 4.843750 2.140625l4.046875 0.000000l0.000000 1.765625l-26.703125 0.000000l0.000000 -1.765625l2.000000 0.000000q1.953125 0.000000 3.562500 -0.968750q1.609375 -0.984375 2.218750 -2.640625q0.609375 -1.656250 0.609375 -6.437500l0.000000 -29.406250l-8.687500 0.000000l0.000000 -3.515625l8.687500 0.000000l0.000000 -2.921875q0.000000 -6.687500 2.140625 -11.328125q2.156250 -4.640625 6.578125 -7.500000q4.421875 -2.859375 9.937500 -2.859375q5.125000 0.000000 9.421875 3.328125q2.828125 2.203125 2.828125 4.937500q0.000000 1.453125 -1.265625 2.750000q-1.265625 1.296875 -2.734375 1.296875q-1.125000 0.000000 -2.375000 -0.796875q-1.234375 -0.812500 -3.046875 -3.468750q-1.796875 -2.671875 -3.312500 -3.593750q-1.515625 -0.937500 -3.375000 -0.937500q-2.250000 0.000000 -3.812500 1.203125q-1.562500 1.203125 -2.250000 3.718750q-0.671875 2.500000 -0.671875 12.953125l0.000000 3.218750l11.515625 0.000000l0.000000 3.515625z"/>
<path id="c_c1aeb1619b359e72acaf4cfe36066b68" d="M16.406250 -36.531250q4.890625 -4.875000 5.765625 -5.609375q2.187500 -1.859375 4.718750 -2.875000q2.546875 -1.031250 5.046875 -1.031250q4.203125 0.000000 7.218750 2.453125q3.031250 2.437500 4.062500 7.062500q5.031250 -5.859375 8.484375 -7.687500q3.468750 -1.828125 7.140625 -1.828125q3.562500 0.000000 6.312500 1.828125q2.765625 1.828125 4.375000 5.984375q1.078125 2.828125 1.078125 8.890625l0.000000 19.234375q0.000000 4.203125 0.625000 5.765625q0.500000 1.078125 1.812500 1.828125q1.312500 0.750000 4.296875 0.750000l0.000000 1.765625l-22.062500 0.000000l0.000000 -1.765625l0.921875 0.000000q2.875000 0.000000 4.484375 -1.109375q1.125000 -0.781250 1.625000 -2.500000q0.187500 -0.828125 0.187500 -4.734375l0.000000 -19.234375q0.000000 -5.468750 -1.312500 -7.718750q-1.906250 -3.125000 -6.109375 -3.125000q-2.593750 0.000000 -5.203125 1.296875q-2.609375 1.296875 -6.312500 4.812500l-0.109375 0.531250l0.109375 2.093750l0.000000 21.343750q0.000000 4.593750 0.500000 5.718750q0.515625 1.125000 1.921875 1.875000q1.421875 0.750000 4.843750 0.750000l0.000000 1.765625l-22.609375 0.000000l0.000000 -1.765625q3.718750 0.000000 5.109375 -0.875000q1.390625 -0.875000 1.921875 -2.640625q0.250000 -0.828125 0.250000 -4.828125l0.000000 -19.234375q0.000000 -5.468750 -1.609375 -7.859375q-2.156250 -3.125000 -6.015625 -3.125000q-2.625000 0.000000 -5.218750 1.406250q-4.046875 2.156250 -6.250000 4.843750l0.000000 23.968750q0.000000 4.390625 0.609375 5.718750q0.609375 1.312500 1.796875 1.968750q1.203125 0.656250 4.875000 0.656250l0.000000 1.765625l-22.125000 0.000000l0.000000 -1.765625q3.078125 0.000000 4.296875 -0.656250q1.218750 -0.656250 1.843750 -2.093750q0.640625 -1.437500 0.640625 -5.593750l0.000000 -17.093750q0.000000 -7.375000 -0.437500 -9.515625q-0.343750 -1.609375 -1.078125 -2.218750q-0.718750 -0.609375 -2.000000 -0.609375q-1.359375 0.000000 -3.265625 0.734375l-0.734375 -1.765625l13.484375 -5.468750l2.093750 0.000000z"/>
</defs>
<g style="fill: #000000; opacity: 1.000000" transform="translate(365.727273,46.537500)scale(0.100000)">
<use xlink:href="#c_ee5fd3ab2ebc85469395f8bcf4d8a3ec"/>
<use xlink:href="#c_16bd732ad8dc43d9da5a6883e316c3e3" x="72.216797"/>
<use xlink:href="#c_e4678747c298bce5e6f328d9b79a8ccb" x="100.017578"/>
<use xlink:href="#c_d41d8cd98f00b204e9800998ecf8427e" x="125.017578"/>
<use xlink:href="#c_13d3e685a2d88a192cede84aec6ecbba" x="150.017578"/>
<use xlink:href="#c_98afb1f96227a5a1112a15d34f348150" x="200.017578"/>
<use xlink:href="#c_d41d8cd98f00b204e9800998ecf8427e" x="233.318359"/>
<use xlink:href="#c_d0a6f33bd79d803ea74f82975c16111d" x="258.318359"/>
<use xlink:href="#c_bd3d1d3104897ee52dc883ab4165d1de" x="308.318359"/>
<use xlink:href="#c_c1aeb1619b359e72acaf4cfe36066b68" x="336.101562"/>
<use xlink:href="#c_8f20758764ac743c2e0d8760a082d31c" x="413.884766"/>
<use xlink:href="#c_09c0ced85464b3e35e48217151d5e648" x="458.269531"/>
<use xlink:href="#c_8445673ce8146d53c62e137a9ee8f7a5" x="508.269531"/>
<use xlink:href="#c_bd3d1d3104897ee52dc883ab4165d1de" x="547.185547"/>
<use xlink:href="#c_13d3e685a2d88a192cede84aec6ecbba" x="574.968750"/>
<use xlink:href="#c_09c0ced85464b3e35e48217151d5e648" x="624.968750"/>
<use xlink:href="#c_8445673ce8146d53c62e137a9ee8f7a5" x="674.968750"/>
</g>
</g>
<g id="line2d77">
<path style="fill: none; stroke: #75507b; stroke-width: 2.000000; stroke-linejoin: round; stroke-linecap: square;  opacity: 1.000000"  d="M383.081960 58.878125L399.881960 58.878125"/>
</g>
<g id="line2d78">
</g>
<g id="text41">
<g style="fill: #000000; opacity: 1.000000" transform="translate(413.081960,63.078125)scale(0.120000)">
<use xlink:href="#c_a79047214c7b97ce8afcc2ff740aa642"/>
</g>
</g>
<g id="line2d79">
<path style="fill: none; stroke: #729fcf; stroke-width: 2.000000; stroke-linejoin: round; stroke-linecap: square;  opacity: 1.000000"  d="M383.081960 75.840625L399.881960 75.840625"/>
</g>
<g id="line2d80">
</g>
<g id="text42">
<g style="fill: #000000; opacity: 1.000000" transform="translate(413.081960,80.040625)scale(0.120000)">
<use xlink:href="#c_ab771c85abf45b6b1a4f101d65f6d17d"/>
</g>
</g>
<g id="line2d81">
<path style="fill: none; stroke: #cc0000; stroke-width: 2.000000; stroke-linejoin: round; stroke-linecap: square;  opacity: 1.000000"  d="M383.081960 92.803125L399.881960 92.803125"/>
</g>
<g id="line2d82">
</g>
<g id="text43">
<g style="fill: #000000; opacity: 1.000000" transform="translate(413.081960,97.003125)scale(0.120000)">
<use xlink:href="#c_c9ade428cc3bd6556344e79dbb3c506c"/>
</g>
</g>
<g id="line2d83">
<path style="fill: none; stroke: #f57900; stroke-width: 2.000000; stroke-linejoin: round; stroke-linecap: square;  opacity: 1.000000"  d="M383.081960 109.765625L399.881960 109.765625"/>
</g>
<g id="line2d84">
</g>
<g id="text44">
<g style="fill: #000000; opacity: 1.000000" transform="translate(413.081960,113.965625)scale(0.120000)">
<use xlink:href="#c_2864600684e452c769b51d99fb1fd4cf"/>
</g>
</g>
<g id="line2d85">
<path style="fill: none; stroke: #3465a5; stroke-width: 2.000000; stroke-linejoin: round; stroke-linecap: square;  opacity: 1.000000"  d="M383.081960 126.728125L399.881960 126.728125"/>
</g>
<g id="line2d86">
</g>
<g id="text45">
<g style="fill: #000000; opacity: 1.000000" transform="translate(413.081960,130.928125)scale(0.120000)">
<use xlink:href="#c_a79047214c7b97ce8afcc2ff740aa642"/>
<use xlink:href="#c_33db4b510d90c6be72c3cf0c1276ae6e" x="50.000000"/>
</g>
</g>
</g>
</g>
</g>
</svg>
