<?xml version="1.0" standalone="no"?>
<!DOCTYPE svg PUBLIC "-//W3C//DTD SVG 1.1//EN"
  "http://www.w3.org/Graphics/SVG/1.1/DTD/svg11.dtd">
<!-- Created with matplotlib (http://matplotlib.sourceforge.net/) -->
<svg width="360pt" height="288pt" viewBox="0 0 360 288"
   xmlns="http://www.w3.org/2000/svg"
   xmlns:xlink="http://www.w3.org/1999/xlink"
   version="1.1"
   id="svg1">
<filter id="colorAdd"><feComposite in="SourceGraphic" in2="BackgroundImage" operator="arithmetic" k2="1" k3="1"/></filter>
<g id="figure1">
<g id="patch1">
<path style="fill: #ffffff; stroke: #ffffff; stroke-width: 1.000000; stroke-linejoin: round; stroke-linecap: square;  opacity: 1.000000"  d="M0.000000 288.000000L360.000000 288.000000L360.000000 0.000000
L0.000000 0.000000z"/>
</g>
<g id="axes1">
<g id="patch2">
<path style="fill: #ffffff; opacity: 1.000000"  d="M45.000000 259.200000L324.000000 259.200000L324.000000 28.800000
L45.000000 28.800000z"/>
</g>
<g id="line2d1">
<defs>
  <clipPath id="p81918c437b28b8a6f570796df516135e">
<rect x="45.000000" y="28.800000" width="279.000000" height="230.400000"/>
  </clipPath>
</defs><path style="fill: none; stroke: #75507b; stroke-width: 2.000000; stroke-linejoin: round; stroke-linecap: square;  opacity: 1.000000" clip-path="url(#p81918c437b28b8a6f570796df516135e)" d="M53.454545 213.835812L61.909091 232.774443L70.363636 239.059818
L78.818182 243.946778L87.272727 246.675305L95.727273 248.762258
L104.181818 249.832039L112.636364 251.079841L121.090909 251.983530
L129.545455 252.727586L138.000000 253.336745L146.454545 253.927141
L154.909091 254.093076L163.363636 254.644051L171.818182 254.896719
L180.272727 255.153887L188.727273 255.339016L197.181818 255.545122
L205.636364 255.702035L214.090909 255.939791L222.545455 256.036760
L231.000000 256.247969L239.454545 256.348521L247.909091 256.489842
L256.363636 256.580965L264.818182 256.691316L273.272727 256.774850
L281.727273 256.853939L290.181818 256.944182L298.636364 257.017166
L307.090909 257.060407L315.545455 257.148772"/>
</g>
<g id="line2d2">
<path style="fill: none; stroke: #729fcf; stroke-width: 2.000000; stroke-linejoin: round; stroke-linecap: square;  opacity: 1.000000" clip-path="url(#p81918c437b28b8a6f570796df516135e)" d="M53.454545 191.041193L61.909091 208.066051L70.363636 217.029589
L78.818182 222.653392L87.272727 226.465922L95.727273 229.049428
L104.181818 231.425163L112.636364 233.776961L121.090909 235.188109
L129.545455 236.424182L138.000000 237.189395L146.454545 238.369202
L154.909091 239.377749L163.363636 240.158780L171.818182 240.913291
L180.272727 241.147423L188.727273 241.888336L197.181818 242.436994
L205.636364 242.715516L214.090909 243.344373L222.545455 243.641556
L231.000000 244.184378L239.454545 244.467100L247.909091 244.715600
L256.363636 245.134038L264.818182 245.388153L273.272727 245.560076
L281.727273 245.992839L290.181818 246.054953L298.636364 246.350179
L307.090909 246.613200L315.545455 246.728155"/>
</g>
<g id="line2d3">
<path style="fill: none; stroke: #cc0000; stroke-width: 2.000000; stroke-linejoin: round; stroke-linecap: square;  opacity: 1.000000" clip-path="url(#p81918c437b28b8a6f570796df516135e)" d="M53.454545 158.537924L61.909091 175.413010L70.363636 183.416360
L78.818182 190.290764L87.272727 193.520533L95.727273 196.835234
L104.181818 199.235807L112.636364 201.987788L121.090909 203.871957
L129.545455 205.108188L138.000000 206.791063L146.454545 208.192571
L154.909091 209.236487L163.363636 210.310851L171.818182 211.255996
L180.272727 212.065385L188.727273 212.816736L197.181818 213.860931
L205.636364 214.170860L214.090909 214.929524L222.545455 215.727306
L231.000000 216.175845L239.454545 216.719190L247.909091 217.285956
L256.363636 217.806915L264.818182 218.158278L273.272727 218.833067
L281.727273 219.097419L290.181818 219.625083L298.636364 219.944541
L307.090909 220.150021L315.545455 220.718646"/>
</g>
<g id="line2d4">
<path style="fill: none; stroke: #f57900; stroke-width: 2.000000; stroke-linejoin: round; stroke-linecap: square;  opacity: 1.000000" clip-path="url(#p81918c437b28b8a6f570796df516135e)" d="M53.454545 111.569073L61.909091 126.692606L70.363636 136.614671
L78.818182 141.922040L87.272727 146.771659L95.727273 150.035278
L104.181818 152.645706L112.636364 154.980834L121.090909 157.117781
L129.545455 158.406950L138.000000 160.451996L146.454545 161.935398
L154.909091 163.070380L163.363636 164.005768L171.818182 165.164436
L180.272727 166.322076L188.727273 166.954791L197.181818 167.914829
L205.636364 168.872236L214.090909 169.130826L222.545455 170.090199
L231.000000 170.558243L239.454545 171.282251L247.909091 171.766537
L256.363636 172.233984L264.818182 173.032133L273.272727 173.245486
L281.727273 173.979962L290.181818 174.555871L298.636364 174.991152
L307.090909 175.354652L315.545455 175.717820"/>
</g>
<g id="line2d5">
<path style="fill: none; stroke: #3465a5; stroke-width: 2.000000; stroke-linejoin: round; stroke-linecap: square;  opacity: 1.000000" clip-path="url(#p81918c437b28b8a6f570796df516135e)" d="M53.454545 46.023269L61.909091 62.805202L70.363636 71.798643
L78.818182 78.010726L87.272727 81.915129L95.727273 85.001520
L104.181818 87.533221L112.636364 89.640558L121.090909 91.969543
L129.545455 93.905170L138.000000 95.128378L146.454545 96.588586
L154.909091 98.044978L163.363636 99.011544L171.818182 99.935899
L180.272727 100.860288L188.727273 101.911209L197.181818 102.571845
L205.636364 103.510744L214.090909 104.607300L222.545455 104.979816
L231.000000 105.652395L239.454545 106.408519L247.909091 106.814546
L256.363636 107.454841L264.818182 107.805177L273.272727 108.506033
L281.727273 109.043249L290.181818 109.465861L298.636364 109.908517
L307.090909 110.518663L315.545455 110.725957"/>
</g>
<g id="matplotlib.axis1">
<g id="xtick1">
<g id="line2d6">
<defs><path id="m30e32995789d870ad79a2e54c91cf9c6" d="M0.000000 0.000000L0.000000 -4.000000"/></defs>
<g ><use style="fill: none; stroke: #000000; stroke-width: 0.500000; stroke-linejoin: round; stroke-linecap: butt;  opacity: 1.000000" xlink:href="#m30e32995789d870ad79a2e54c91cf9c6" x="45.000000" y="259.200000"/>
</g></g>
<g id="line2d7">
<defs><path id="m9281cae24120827b11d5ea8a7ad3e96b" d="M0.000000 0.000000L0.000000 4.000000"/></defs>
<g ><use style="fill: none; stroke: #000000; stroke-width: 0.500000; stroke-linejoin: round; stroke-linecap: butt;  opacity: 1.000000" xlink:href="#m9281cae24120827b11d5ea8a7ad3e96b" x="45.000000" y="28.800000"/>
</g></g>
<g id="text1">
<defs>
<path id="c_b8e04c2a8ab7e9ee901582cfef7cd2bc" d="M5.000000 -34.703125q0.000000 -17.390625 6.140625 -26.796875q6.156250 -9.406250 17.062500 -9.406250q10.890625 0.000000 17.046875 9.406250q6.156250 9.406250 6.156250 26.796875q0.000000 17.406250 -6.156250 26.812500q-6.156250 9.390625 -17.046875 9.390625q-10.906250 0.000000 -17.062500 -9.390625q-6.140625 -9.406250 -6.140625 -26.812500M41.593750 -34.703125q0.000000 -5.703125 -0.656250 -10.796875q-0.640625 -5.093750 -2.187500 -8.890625q-1.546875 -3.812500 -4.156250 -6.062500q-2.593750 -2.250000 -6.390625 -2.250000q-3.796875 0.000000 -6.406250 2.250000q-2.593750 2.250000 -4.156250 6.062500q-1.546875 3.796875 -2.203125 8.890625q-0.640625 5.093750 -0.640625 10.796875q0.000000 5.703125 0.640625 10.812500q0.656250 5.093750 2.203125 8.890625q1.562500 3.796875 4.156250 6.046875q2.609375 2.250000 6.406250 2.250000q3.796875 0.000000 6.390625 -2.250000q2.609375 -2.250000 4.156250 -6.046875q1.546875 -3.796875 2.187500 -8.890625q0.656250 -5.109375 0.656250 -10.812500"/>
</defs>
<g style="fill: #000000; opacity: 1.000000" transform="translate(42.679688,270.293750)scale(0.100000)">
<use xlink:href="#c_b8e04c2a8ab7e9ee901582cfef7cd2bc"/>
</g>
</g>
</g>
<g id="xtick2">
<g id="line2d8">
<g ><use style="fill: none; stroke: #000000; stroke-width: 0.500000; stroke-linejoin: round; stroke-linecap: butt;  opacity: 1.000000" xlink:href="#m30e32995789d870ad79a2e54c91cf9c6" x="87.272727" y="259.200000"/>
</g></g>
<g id="line2d9">
<g ><use style="fill: none; stroke: #000000; stroke-width: 0.500000; stroke-linejoin: round; stroke-linecap: butt;  opacity: 1.000000" xlink:href="#m9281cae24120827b11d5ea8a7ad3e96b" x="87.272727" y="28.800000"/>
</g></g>
<g id="text2">
<defs>
<path id="c_0699dac6b6a025c8cf0819a42a19d94c" d="M19.906250 -42.593750q15.093750 0.593750 22.140625 6.593750q7.046875 6.000000 7.046875 16.296875q0.000000 4.609375 -1.546875 8.515625q-1.546875 3.890625 -4.703125 6.687500q-3.140625 2.796875 -7.953125 4.406250q-4.796875 1.593750 -11.390625 1.593750q-2.593750 0.000000 -5.296875 -0.406250q-2.703125 -0.390625 -5.000000 -1.000000q-2.296875 -0.593750 -4.109375 -1.187500q-1.796875 -0.609375 -2.593750 -1.000000l1.796875 -8.109375q1.703125 0.796875 5.546875 2.109375q3.859375 1.296875 9.453125 1.296875q4.500000 0.000000 7.546875 -1.000000q3.062500 -1.000000 4.953125 -2.703125q1.906250 -1.703125 2.750000 -3.953125q0.859375 -2.250000 0.859375 -4.750000q0.000000 -3.796875 -1.312500 -6.750000q-1.296875 -2.953125 -4.593750 -4.953125q-3.296875 -2.000000 -8.796875 -3.046875q-5.500000 -1.046875 -13.906250 -1.046875q0.609375 -4.906250 0.953125 -9.203125q0.343750 -4.296875 0.640625 -8.390625q0.312500 -4.109375 0.500000 -8.156250q0.203125 -4.046875 0.406250 -8.546875l33.406250 0.000000l0.000000 7.890625l-25.296875 0.000000q-0.109375 1.500000 -0.312500 4.062500q-0.187500 2.546875 -0.390625 5.296875q-0.203125 2.750000 -0.406250 5.359375q-0.203125 2.593750 -0.390625 4.093750"/>
</defs>
<g style="fill: #000000; opacity: 1.000000" transform="translate(85.147727,270.137500)scale(0.100000)">
<use xlink:href="#c_0699dac6b6a025c8cf0819a42a19d94c"/>
</g>
</g>
</g>
<g id="xtick3">
<g id="line2d10">
<g ><use style="fill: none; stroke: #000000; stroke-width: 0.500000; stroke-linejoin: round; stroke-linecap: butt;  opacity: 1.000000" xlink:href="#m30e32995789d870ad79a2e54c91cf9c6" x="129.545455" y="259.200000"/>
</g></g>
<g id="line2d11">
<g ><use style="fill: none; stroke: #000000; stroke-width: 0.500000; stroke-linejoin: round; stroke-linecap: butt;  opacity: 1.000000" xlink:href="#m9281cae24120827b11d5ea8a7ad3e96b" x="129.545455" y="28.800000"/>
</g></g>
<g id="text3">
<defs>
<path id="c_cc6fed3b17ccb9d03f1b2be8b2651138" d="M9.296875 -55.000000q5.703125 -2.203125 11.093750 -5.640625q5.406250 -3.453125 9.906250 -8.656250l6.609375 0.000000l0.000000 69.296875l-9.312500 0.000000l0.000000 -56.406250q-1.187500 1.109375 -2.937500 2.312500q-1.750000 1.187500 -3.812500 2.296875q-2.046875 1.093750 -4.296875 2.093750q-2.250000 1.000000 -4.343750 1.703125z"/>
</defs>
<g style="fill: #000000; opacity: 1.000000" transform="translate(124.623580,270.293750)scale(0.100000)">
<use xlink:href="#c_cc6fed3b17ccb9d03f1b2be8b2651138"/>
<use xlink:href="#c_b8e04c2a8ab7e9ee901582cfef7cd2bc" x="56.399994"/>
</g>
</g>
</g>
<g id="xtick4">
<g id="line2d12">
<g ><use style="fill: none; stroke: #000000; stroke-width: 0.500000; stroke-linejoin: round; stroke-linecap: butt;  opacity: 1.000000" xlink:href="#m30e32995789d870ad79a2e54c91cf9c6" x="171.818182" y="259.200000"/>
</g></g>
<g id="line2d13">
<g ><use style="fill: none; stroke: #000000; stroke-width: 0.500000; stroke-linejoin: round; stroke-linecap: butt;  opacity: 1.000000" xlink:href="#m9281cae24120827b11d5ea8a7ad3e96b" x="171.818182" y="28.800000"/>
</g></g>
<g id="text4">
<g style="fill: #000000; opacity: 1.000000" transform="translate(167.013494,270.137500)scale(0.100000)">
<use xlink:href="#c_cc6fed3b17ccb9d03f1b2be8b2651138"/>
<use xlink:href="#c_0699dac6b6a025c8cf0819a42a19d94c" x="56.399994"/>
</g>
</g>
</g>
<g id="xtick5">
<g id="line2d14">
<g ><use style="fill: none; stroke: #000000; stroke-width: 0.500000; stroke-linejoin: round; stroke-linecap: butt;  opacity: 1.000000" xlink:href="#m30e32995789d870ad79a2e54c91cf9c6" x="214.090909" y="259.200000"/>
</g></g>
<g id="line2d15">
<g ><use style="fill: none; stroke: #000000; stroke-width: 0.500000; stroke-linejoin: round; stroke-linecap: butt;  opacity: 1.000000" xlink:href="#m9281cae24120827b11d5ea8a7ad3e96b" x="214.090909" y="28.800000"/>
</g></g>
<g id="text5">
<defs>
<path id="c_dcfa75b307750c46f57ba5ed76b90e2d" d="M46.703125 -51.593750q0.000000 3.593750 -1.453125 6.953125q-1.453125 3.343750 -3.859375 6.593750q-2.390625 3.250000 -5.390625 6.406250q-3.000000 3.140625 -6.000000 6.140625q-1.703125 1.703125 -3.953125 4.000000q-2.250000 2.296875 -4.250000 4.796875q-2.000000 2.500000 -3.359375 4.812500q-1.343750 2.296875 -1.343750 3.984375l31.906250 0.000000l0.000000 7.906250l-42.000000 0.000000q-0.093750 -0.593750 -0.093750 -1.187500q0.000000 -0.609375 0.000000 -1.109375q0.000000 -4.703125 1.546875 -8.750000q1.546875 -4.046875 4.046875 -7.640625q2.500000 -3.609375 5.593750 -6.812500q3.109375 -3.203125 6.109375 -6.203125q2.500000 -2.390625 4.750000 -4.734375q2.250000 -2.359375 4.000000 -4.703125q1.750000 -2.359375 2.796875 -4.859375q1.046875 -2.500000 1.046875 -5.296875q0.000000 -3.000000 -0.953125 -5.093750q-0.937500 -2.109375 -2.546875 -3.500000q-1.593750 -1.406250 -3.750000 -2.046875q-2.140625 -0.656250 -4.546875 -0.656250q-2.906250 0.000000 -5.312500 0.796875q-2.390625 0.796875 -4.296875 1.843750q-1.890625 1.046875 -3.187500 2.203125q-1.296875 1.156250 -2.000000 1.750000l-4.609375 -6.593750q0.906250 -1.000000 2.703125 -2.453125q1.796875 -1.453125 4.296875 -2.750000q2.500000 -1.296875 5.593750 -2.203125q3.109375 -0.906250 6.718750 -0.906250q10.890625 0.000000 16.343750 5.062500q5.453125 5.046875 5.453125 14.250000"/>
</defs>
<g style="fill: #000000; opacity: 1.000000" transform="translate(208.981534,270.293750)scale(0.100000)">
<use xlink:href="#c_dcfa75b307750c46f57ba5ed76b90e2d"/>
<use xlink:href="#c_b8e04c2a8ab7e9ee901582cfef7cd2bc" x="56.399994"/>
</g>
</g>
</g>
<g id="xtick6">
<g id="line2d16">
<g ><use style="fill: none; stroke: #000000; stroke-width: 0.500000; stroke-linejoin: round; stroke-linecap: butt;  opacity: 1.000000" xlink:href="#m30e32995789d870ad79a2e54c91cf9c6" x="256.363636" y="259.200000"/>
</g></g>
<g id="line2d17">
<g ><use style="fill: none; stroke: #000000; stroke-width: 0.500000; stroke-linejoin: round; stroke-linecap: butt;  opacity: 1.000000" xlink:href="#m9281cae24120827b11d5ea8a7ad3e96b" x="256.363636" y="28.800000"/>
</g></g>
<g id="text6">
<g style="fill: #000000; opacity: 1.000000" transform="translate(251.371449,270.293750)scale(0.100000)">
<use xlink:href="#c_dcfa75b307750c46f57ba5ed76b90e2d"/>
<use xlink:href="#c_0699dac6b6a025c8cf0819a42a19d94c" x="56.399994"/>
</g>
</g>
</g>
<g id="xtick7">
<g id="line2d18">
<g ><use style="fill: none; stroke: #000000; stroke-width: 0.500000; stroke-linejoin: round; stroke-linecap: butt;  opacity: 1.000000" xlink:href="#m30e32995789d870ad79a2e54c91cf9c6" x="298.636364" y="259.200000"/>
</g></g>
<g id="line2d19">
<g ><use style="fill: none; stroke: #000000; stroke-width: 0.500000; stroke-linejoin: round; stroke-linecap: butt;  opacity: 1.000000" xlink:href="#m9281cae24120827b11d5ea8a7ad3e96b" x="298.636364" y="28.800000"/>
</g></g>
<g id="text7">
<defs>
<path id="c_58c110c550840c55df8a8eedb084bdd9" d="M22.593750 -6.796875q8.906250 0.000000 12.750000 -3.500000q3.859375 -3.500000 3.859375 -9.406250q0.000000 -3.796875 -1.609375 -6.390625q-1.593750 -2.609375 -4.203125 -4.156250q-2.593750 -1.546875 -6.046875 -2.187500q-3.437500 -0.656250 -7.046875 -0.656250l-2.390625 0.000000l0.000000 -7.609375l3.296875 0.000000q2.500000 0.000000 5.140625 -0.500000q2.656250 -0.500000 4.859375 -1.796875q2.203125 -1.296875 3.593750 -3.546875q1.406250 -2.250000 1.406250 -5.656250q0.000000 -2.796875 -1.000000 -4.796875q-1.000000 -2.000000 -2.656250 -3.296875q-1.640625 -1.296875 -3.796875 -1.843750q-2.156250 -0.562500 -4.546875 -0.562500q-4.796875 0.000000 -8.156250 1.406250q-3.343750 1.390625 -5.640625 2.890625l-3.609375 -7.093750q1.203125 -0.796875 3.046875 -1.750000q1.859375 -0.953125 4.156250 -1.750000q2.296875 -0.796875 4.937500 -1.343750q2.656250 -0.562500 5.562500 -0.562500q5.500000 0.000000 9.500000 1.359375q4.000000 1.343750 6.593750 3.796875q2.609375 2.453125 3.906250 5.812500q1.296875 3.343750 1.296875 7.234375q0.000000 5.406250 -3.109375 9.265625q-3.093750 3.843750 -7.484375 5.843750q2.703125 0.796875 5.203125 2.296875q2.500000 1.500000 4.343750 3.796875q1.843750 2.296875 3.000000 5.296875q1.156250 3.000000 1.156250 6.703125q0.000000 4.500000 -1.562500 8.359375q-1.546875 3.843750 -4.796875 6.640625q-3.250000 2.796875 -8.156250 4.406250q-4.890625 1.593750 -11.593750 1.593750q-2.593750 0.000000 -5.343750 -0.406250q-2.750000 -0.390625 -5.156250 -1.000000q-2.390625 -0.593750 -4.203125 -1.187500q-1.796875 -0.609375 -2.593750 -1.000000l1.796875 -8.109375q1.703125 0.796875 5.656250 2.109375q3.953125 1.296875 9.640625 1.296875"/>
</defs>
<g style="fill: #000000; opacity: 1.000000" transform="translate(293.519176,270.293750)scale(0.100000)">
<use xlink:href="#c_58c110c550840c55df8a8eedb084bdd9"/>
<use xlink:href="#c_b8e04c2a8ab7e9ee901582cfef7cd2bc" x="56.399994"/>
</g>
</g>
</g>
<g id="text8">
<defs>
<path id="c_2f9f1db772ee53f131729724d89ad3f5" d="M24.703125 -6.906250q15.203125 0.000000 15.203125 -10.390625q0.000000 -3.203125 -1.359375 -5.453125q-1.343750 -2.250000 -3.656250 -3.890625q-2.296875 -1.656250 -5.250000 -2.859375q-2.937500 -1.203125 -6.234375 -2.406250q-3.812500 -1.296875 -7.218750 -2.937500q-3.390625 -1.656250 -5.890625 -3.906250q-2.500000 -2.250000 -3.953125 -5.343750q-1.437500 -3.109375 -1.437500 -7.500000q0.000000 -9.109375 6.187500 -14.203125q6.203125 -5.109375 17.109375 -5.109375q6.296875 0.000000 11.437500 1.359375q5.156250 1.343750 7.562500 2.953125l-3.109375 7.890625q-2.093750 -1.296875 -6.250000 -2.546875q-4.140625 -1.250000 -9.640625 -1.250000q-2.796875 0.000000 -5.203125 0.609375q-2.406250 0.593750 -4.203125 1.796875q-1.796875 1.187500 -2.843750 3.046875q-1.046875 1.843750 -1.046875 4.343750q0.000000 2.796875 1.093750 4.703125q1.093750 1.906250 3.093750 3.359375q2.000000 1.437500 4.656250 2.640625q2.656250 1.203125 5.843750 2.406250q4.500000 1.796875 8.250000 3.593750q3.750000 1.796875 6.500000 4.296875q2.750000 2.500000 4.250000 5.953125q1.500000 3.453125 1.500000 8.343750q0.000000 9.109375 -6.656250 14.015625q-6.640625 4.890625 -18.734375 4.890625q-4.109375 0.000000 -7.562500 -0.546875q-3.437500 -0.546875 -6.140625 -1.296875q-2.703125 -0.750000 -4.656250 -1.593750q-1.937500 -0.859375 -3.046875 -1.468750l2.906250 -8.000000q2.296875 1.312500 7.000000 2.906250q4.703125 1.593750 11.500000 1.593750"/>
<path id="c_2630c3a8efd9c11952dcd56112a56471" d="M5.093750 -25.906250q0.000000 -6.890625 2.000000 -12.031250q2.000000 -5.156250 5.296875 -8.562500q3.312500 -3.406250 7.609375 -5.093750q4.296875 -1.703125 8.796875 -1.703125q10.500000 0.000000 16.093750 6.546875q5.609375 6.546875 5.609375 19.953125q0.000000 0.593750 0.000000 1.546875q0.000000 0.953125 -0.093750 1.750000l-35.609375 0.000000q0.609375 8.093750 4.703125 12.296875q4.093750 4.203125 12.796875 4.203125q4.906250 0.000000 8.250000 -0.843750q3.359375 -0.859375 5.046875 -1.656250l1.312500 7.796875q-1.703125 0.906250 -5.953125 1.906250q-4.250000 1.000000 -9.656250 1.000000q-6.796875 0.000000 -11.750000 -2.046875q-4.953125 -2.062500 -8.156250 -5.656250q-3.187500 -3.593750 -4.750000 -8.546875q-1.546875 -4.953125 -1.546875 -10.859375M40.796875 -31.000000q0.109375 -6.296875 -3.140625 -10.343750q-3.250000 -4.062500 -8.953125 -4.062500q-3.203125 0.000000 -5.656250 1.250000q-2.453125 1.250000 -4.156250 3.250000q-1.687500 2.000000 -2.640625 4.609375q-0.953125 2.593750 -1.250000 5.296875z"/>
<path id="c_b3694d90f30e096f9c0a315ee1403e2f" d="M14.796875 -25.906250q0.000000 4.000000 0.796875 7.453125q0.812500 3.453125 2.609375 6.000000q1.796875 2.546875 4.640625 4.000000q2.859375 1.453125 6.859375 1.453125q3.796875 0.000000 7.000000 -1.296875q3.203125 -1.296875 4.890625 -2.703125l0.000000 -32.796875q-1.390625 -0.406250 -3.750000 -0.703125q-2.343750 -0.296875 -6.546875 -0.296875q-7.500000 0.000000 -12.000000 4.906250q-4.500000 4.890625 -4.500000 13.984375M5.093750 -25.906250q0.000000 -6.296875 1.843750 -11.343750q1.859375 -5.046875 5.250000 -8.546875q3.406250 -3.500000 8.203125 -5.390625q4.812500 -1.906250 10.812500 -1.906250q6.500000 0.000000 11.437500 0.953125q4.953125 0.937500 8.265625 1.734375l0.000000 68.906250l-9.312500 0.000000l0.000000 -20.796875q-1.687500 1.093750 -5.140625 2.296875q-3.453125 1.203125 -7.953125 1.203125q-5.593750 0.000000 -9.953125 -2.000000q-4.343750 -2.000000 -7.343750 -5.593750q-3.000000 -3.609375 -4.562500 -8.609375q-1.546875 -5.000000 -1.546875 -10.906250"/>
<path id="c_e002143ce923dd0c76e395d8845c1f6c" d="M49.406250 -1.500000q-3.203125 0.796875 -8.453125 1.687500q-5.250000 0.906250 -12.156250 0.906250q-6.000000 0.000000 -10.109375 -1.750000q-4.093750 -1.750000 -6.593750 -4.937500q-2.500000 -3.203125 -3.593750 -7.546875q-1.093750 -4.359375 -1.093750 -9.656250l0.000000 -29.203125l9.296875 0.000000l0.000000 27.203125q0.000000 9.500000 3.000000 13.609375q3.000000 4.093750 10.093750 4.093750q1.500000 0.000000 3.093750 -0.093750q1.609375 -0.109375 3.000000 -0.250000q1.406250 -0.156250 2.546875 -0.312500q1.156250 -0.156250 1.656250 -0.343750l0.000000 -43.906250l9.312500 0.000000z"/>
<path id="c_007a5bf2f236bd5296a073a16035f8e6" d="M8.000000 -50.500000q3.203125 -0.796875 8.500000 -1.687500q5.296875 -0.906250 12.203125 -0.906250q6.203125 0.000000 10.296875 1.750000q4.093750 1.750000 6.546875 4.906250q2.453125 3.140625 3.453125 7.546875q1.000000 4.390625 1.000000 9.687500l0.000000 29.203125l-9.296875 0.000000l0.000000 -27.203125q0.000000 -4.796875 -0.656250 -8.187500q-0.640625 -3.406250 -2.140625 -5.500000q-1.500000 -2.109375 -4.000000 -3.062500q-2.500000 -0.953125 -6.203125 -0.953125q-1.500000 0.000000 -3.109375 0.109375q-1.593750 0.093750 -3.046875 0.250000q-1.453125 0.140625 -2.609375 0.343750q-1.140625 0.203125 -1.640625 0.296875l0.000000 43.906250l-9.296875 0.000000z"/>
<path id="c_f81132f724d3f1d88d5bcb94661c7f79" d="M30.593750 1.203125q-6.296875 0.000000 -11.046875 -2.000000q-4.750000 -2.000000 -8.000000 -5.593750q-3.250000 -3.609375 -4.859375 -8.562500q-1.593750 -4.953125 -1.593750 -10.953125q0.000000 -6.000000 1.750000 -11.000000q1.750000 -5.000000 4.953125 -8.640625q3.203125 -3.656250 7.843750 -5.703125q4.656250 -2.046875 10.359375 -2.046875q3.500000 0.000000 7.000000 0.609375q3.500000 0.593750 6.703125 1.890625l-2.109375 7.890625q-2.093750 -1.000000 -4.843750 -1.593750q-2.750000 -0.593750 -5.843750 -0.593750q-7.812500 0.000000 -11.968750 4.906250q-4.140625 4.890625 -4.140625 14.281250q0.000000 4.203125 0.953125 7.703125q0.953125 3.500000 3.000000 6.000000q2.046875 2.500000 5.250000 3.859375q3.203125 1.343750 7.796875 1.343750q3.703125 0.000000 6.703125 -0.703125q3.000000 -0.703125 4.703125 -1.500000l1.296875 7.796875q-0.796875 0.500000 -2.296875 0.953125q-1.500000 0.453125 -3.406250 0.796875q-1.890625 0.359375 -4.046875 0.609375q-2.156250 0.250000 -4.156250 0.250000"/>
<path id="c_d41d8cd98f00b204e9800998ecf8427e" d=""/>
<path id="c_7dbc717a9f424be062ac558a964a8b5c" d="M23.593750 1.000000q-8.593750 -0.203125 -12.203125 -3.703125q-3.593750 -3.500000 -3.593750 -10.890625l0.000000 -62.406250l9.296875 -1.593750l0.000000 62.500000q0.000000 2.296875 0.406250 3.796875q0.406250 1.500000 1.296875 2.406250q0.906250 0.890625 2.406250 1.343750q1.500000 0.453125 3.703125 0.750000z"/>
<path id="c_06c3f3198241a437b7a6a595f7f25675" d="M40.593750 -5.203125q-1.187500 0.796875 -4.640625 2.046875q-3.453125 1.250000 -8.046875 1.250000q-4.703125 0.000000 -8.859375 -1.500000q-4.140625 -1.500000 -7.250000 -4.640625q-3.093750 -3.156250 -4.906250 -7.843750q-1.796875 -4.703125 -1.796875 -11.203125q0.000000 -5.703125 1.703125 -10.453125q1.703125 -4.750000 4.953125 -8.203125q3.250000 -3.453125 7.953125 -5.390625q4.703125 -1.953125 10.593750 -1.953125q6.500000 0.000000 11.343750 0.953125q4.859375 0.937500 8.156250 1.734375l0.000000 46.406250q0.000000 12.000000 -6.203125 17.390625q-6.187500 5.406250 -18.796875 5.406250q-4.890625 0.000000 -9.250000 -0.796875q-4.343750 -0.796875 -7.546875 -1.906250l1.703125 -8.093750q2.796875 1.093750 6.843750 1.937500q4.046875 0.859375 8.453125 0.859375q8.296875 0.000000 11.937500 -3.296875q3.656250 -3.296875 3.656250 -10.500000zM40.500000 -43.796875q-1.406250 -0.406250 -3.750000 -0.750000q-2.343750 -0.359375 -6.343750 -0.359375q-7.500000 0.000000 -11.562500 4.906250q-4.046875 4.906250 -4.046875 13.000000q0.000000 4.500000 1.140625 7.703125q1.156250 3.203125 3.109375 5.296875q1.953125 2.093750 4.500000 3.093750q2.546875 1.000000 5.250000 1.000000q3.703125 0.000000 6.796875 -1.046875q3.109375 -1.046875 4.906250 -2.453125z"/>
<path id="c_08126cea654df7957dbab5417730ce31" d="M16.703125 -52.000000l19.703125 0.000000l0.000000 7.796875l-19.703125 0.000000l0.000000 24.000000q0.000000 3.906250 0.593750 6.453125q0.609375 2.546875 1.796875 4.000000q1.203125 1.453125 3.000000 2.062500q1.812500 0.593750 4.203125 0.593750q4.203125 0.000000 6.750000 -0.953125q2.546875 -0.953125 3.546875 -1.359375l1.812500 7.703125q-1.406250 0.703125 -4.906250 1.750000q-3.500000 1.046875 -8.000000 1.046875q-5.296875 0.000000 -8.750000 -1.343750q-3.453125 -1.343750 -5.562500 -4.046875q-2.093750 -2.703125 -2.937500 -6.656250q-0.843750 -3.953125 -0.843750 -9.140625l0.000000 -46.406250l9.296875 -1.593750z"/>
<path id="c_f58ae6d4464494f73485523c9fef0dd8" d="M8.000000 -0.000000l0.000000 -76.000000l9.296875 -1.593750l0.000000 26.593750q2.609375 -1.000000 5.546875 -1.546875q2.953125 -0.546875 5.859375 -0.546875q6.203125 0.000000 10.296875 1.750000q4.093750 1.750000 6.546875 4.906250q2.453125 3.140625 3.453125 7.546875q1.000000 4.390625 1.000000 9.687500l0.000000 29.203125l-9.296875 0.000000l0.000000 -27.203125q0.000000 -4.796875 -0.656250 -8.187500q-0.640625 -3.406250 -2.140625 -5.500000q-1.500000 -2.109375 -4.000000 -3.062500q-2.500000 -0.953125 -6.203125 -0.953125q-1.500000 0.000000 -3.109375 0.203125q-1.593750 0.203125 -3.046875 0.453125q-1.453125 0.250000 -2.609375 0.546875q-1.140625 0.296875 -1.640625 0.500000l0.000000 43.203125z"/>
</defs>
<g style="fill: #000000; opacity: 1.000000" transform="translate(146.851562,283.215625)scale(0.100000)">
<use xlink:href="#c_2f9f1db772ee53f131729724d89ad3f5"/>
<use xlink:href="#c_2630c3a8efd9c11952dcd56112a56471" x="53.199997"/>
<use xlink:href="#c_b3694d90f30e096f9c0a315ee1403e2f" x="109.099991"/>
<use xlink:href="#c_e002143ce923dd0c76e395d8845c1f6c" x="167.999985"/>
<use xlink:href="#c_2630c3a8efd9c11952dcd56112a56471" x="225.399979"/>
<use xlink:href="#c_007a5bf2f236bd5296a073a16035f8e6" x="281.299973"/>
<use xlink:href="#c_f81132f724d3f1d88d5bcb94661c7f79" x="338.699966"/>
<use xlink:href="#c_2630c3a8efd9c11952dcd56112a56471" x="385.199951"/>
<use xlink:href="#c_d41d8cd98f00b204e9800998ecf8427e" x="441.099945"/>
<use xlink:href="#c_7dbc717a9f424be062ac558a964a8b5c" x="464.199936"/>
<use xlink:href="#c_2630c3a8efd9c11952dcd56112a56471" x="491.499924"/>
<use xlink:href="#c_007a5bf2f236bd5296a073a16035f8e6" x="547.399918"/>
<use xlink:href="#c_06c3f3198241a437b7a6a595f7f25675" x="604.799911"/>
<use xlink:href="#c_08126cea654df7957dbab5417730ce31" x="662.599899"/>
<use xlink:href="#c_f58ae6d4464494f73485523c9fef0dd8" x="702.799896"/>
</g>
</g>
</g>
<g id="matplotlib.axis2">
<g id="ytick1">
<g id="line2d20">
<defs><path id="m3400efa6b1638b3fea9e19e898273957" d="M0.000000 0.000000L4.000000 0.000000"/></defs>
<g ><use style="fill: none; stroke: #000000; stroke-width: 0.500000; stroke-linejoin: round; stroke-linecap: butt;  opacity: 1.000000" xlink:href="#m3400efa6b1638b3fea9e19e898273957" x="45.000000" y="259.200000"/>
</g></g>
<g id="line2d21">
<defs><path id="m20b58b2501143cb5e0a5e8f1ef6f1643" d="M0.000000 0.000000L-4.000000 0.000000"/></defs>
<g ><use style="fill: none; stroke: #000000; stroke-width: 0.500000; stroke-linejoin: round; stroke-linecap: butt;  opacity: 1.000000" xlink:href="#m20b58b2501143cb5e0a5e8f1ef6f1643" x="324.000000" y="259.200000"/>
</g></g>
<g id="text9">
<defs>
<path id="c_402588e6a3e0f48f1e947553ccc2fe49" d="M19.000000 -5.406250q0.000000 2.703125 -1.796875 4.703125q-1.796875 2.000000 -4.906250 2.000000q-3.093750 0.000000 -4.906250 -2.000000q-1.796875 -2.000000 -1.796875 -4.703125q0.000000 -2.687500 1.796875 -4.687500q1.812500 -2.000000 4.906250 -2.000000q3.109375 0.000000 4.906250 2.000000q1.796875 2.000000 1.796875 4.687500"/>
</defs>
<g style="fill: #000000; opacity: 1.000000" transform="translate(28.250000,262.668750)scale(0.100000)">
<use xlink:href="#c_b8e04c2a8ab7e9ee901582cfef7cd2bc"/>
<use xlink:href="#c_402588e6a3e0f48f1e947553ccc2fe49" x="56.399994"/>
<use xlink:href="#c_b8e04c2a8ab7e9ee901582cfef7cd2bc" x="80.999985"/>
</g>
</g>
</g>
<g id="ytick2">
<g id="line2d22">
<g ><use style="fill: none; stroke: #000000; stroke-width: 0.500000; stroke-linejoin: round; stroke-linecap: butt;  opacity: 1.000000" xlink:href="#m3400efa6b1638b3fea9e19e898273957" x="45.000000" y="226.285714"/>
</g></g>
<g id="line2d23">
<g ><use style="fill: none; stroke: #000000; stroke-width: 0.500000; stroke-linejoin: round; stroke-linecap: butt;  opacity: 1.000000" xlink:href="#m20b58b2501143cb5e0a5e8f1ef6f1643" x="324.000000" y="226.285714"/>
</g></g>
<g id="text10">
<g style="fill: #000000; opacity: 1.000000" transform="translate(28.484375,229.754464)scale(0.100000)">
<use xlink:href="#c_b8e04c2a8ab7e9ee901582cfef7cd2bc"/>
<use xlink:href="#c_402588e6a3e0f48f1e947553ccc2fe49" x="56.399994"/>
<use xlink:href="#c_0699dac6b6a025c8cf0819a42a19d94c" x="80.999985"/>
</g>
</g>
</g>
<g id="ytick3">
<g id="line2d24">
<g ><use style="fill: none; stroke: #000000; stroke-width: 0.500000; stroke-linejoin: round; stroke-linecap: butt;  opacity: 1.000000" xlink:href="#m3400efa6b1638b3fea9e19e898273957" x="45.000000" y="193.371429"/>
</g></g>
<g id="line2d25">
<g ><use style="fill: none; stroke: #000000; stroke-width: 0.500000; stroke-linejoin: round; stroke-linecap: butt;  opacity: 1.000000" xlink:href="#m20b58b2501143cb5e0a5e8f1ef6f1643" x="324.000000" y="193.371429"/>
</g></g>
<g id="text11">
<g style="fill: #000000; opacity: 1.000000" transform="translate(28.687500,196.840179)scale(0.100000)">
<use xlink:href="#c_cc6fed3b17ccb9d03f1b2be8b2651138"/>
<use xlink:href="#c_402588e6a3e0f48f1e947553ccc2fe49" x="56.399994"/>
<use xlink:href="#c_b8e04c2a8ab7e9ee901582cfef7cd2bc" x="80.999985"/>
</g>
</g>
</g>
<g id="ytick4">
<g id="line2d26">
<g ><use style="fill: none; stroke: #000000; stroke-width: 0.500000; stroke-linejoin: round; stroke-linecap: butt;  opacity: 1.000000" xlink:href="#m3400efa6b1638b3fea9e19e898273957" x="45.000000" y="160.457143"/>
</g></g>
<g id="line2d27">
<g ><use style="fill: none; stroke: #000000; stroke-width: 0.500000; stroke-linejoin: round; stroke-linecap: butt;  opacity: 1.000000" xlink:href="#m20b58b2501143cb5e0a5e8f1ef6f1643" x="324.000000" y="160.457143"/>
</g></g>
<g id="text12">
<g style="fill: #000000; opacity: 1.000000" transform="translate(28.921875,163.847768)scale(0.100000)">
<use xlink:href="#c_cc6fed3b17ccb9d03f1b2be8b2651138"/>
<use xlink:href="#c_402588e6a3e0f48f1e947553ccc2fe49" x="56.399994"/>
<use xlink:href="#c_0699dac6b6a025c8cf0819a42a19d94c" x="80.999985"/>
</g>
</g>
</g>
<g id="ytick5">
<g id="line2d28">
<g ><use style="fill: none; stroke: #000000; stroke-width: 0.500000; stroke-linejoin: round; stroke-linecap: butt;  opacity: 1.000000" xlink:href="#m3400efa6b1638b3fea9e19e898273957" x="45.000000" y="127.542857"/>
</g></g>
<g id="line2d29">
<g ><use style="fill: none; stroke: #000000; stroke-width: 0.500000; stroke-linejoin: round; stroke-linecap: butt;  opacity: 1.000000" xlink:href="#m20b58b2501143cb5e0a5e8f1ef6f1643" x="324.000000" y="127.542857"/>
</g></g>
<g id="text13">
<g style="fill: #000000; opacity: 1.000000" transform="translate(28.312500,131.011607)scale(0.100000)">
<use xlink:href="#c_dcfa75b307750c46f57ba5ed76b90e2d"/>
<use xlink:href="#c_402588e6a3e0f48f1e947553ccc2fe49" x="56.399994"/>
<use xlink:href="#c_b8e04c2a8ab7e9ee901582cfef7cd2bc" x="80.999985"/>
</g>
</g>
</g>
<g id="ytick6">
<g id="line2d30">
<g ><use style="fill: none; stroke: #000000; stroke-width: 0.500000; stroke-linejoin: round; stroke-linecap: butt;  opacity: 1.000000" xlink:href="#m3400efa6b1638b3fea9e19e898273957" x="45.000000" y="94.628571"/>
</g></g>
<g id="line2d31">
<g ><use style="fill: none; stroke: #000000; stroke-width: 0.500000; stroke-linejoin: round; stroke-linecap: butt;  opacity: 1.000000" xlink:href="#m20b58b2501143cb5e0a5e8f1ef6f1643" x="324.000000" y="94.628571"/>
</g></g>
<g id="text14">
<g style="fill: #000000; opacity: 1.000000" transform="translate(28.546875,98.097321)scale(0.100000)">
<use xlink:href="#c_dcfa75b307750c46f57ba5ed76b90e2d"/>
<use xlink:href="#c_402588e6a3e0f48f1e947553ccc2fe49" x="56.399994"/>
<use xlink:href="#c_0699dac6b6a025c8cf0819a42a19d94c" x="80.999985"/>
</g>
</g>
</g>
<g id="ytick7">
<g id="line2d32">
<g ><use style="fill: none; stroke: #000000; stroke-width: 0.500000; stroke-linejoin: round; stroke-linecap: butt;  opacity: 1.000000" xlink:href="#m3400efa6b1638b3fea9e19e898273957" x="45.000000" y="61.714286"/>
</g></g>
<g id="line2d33">
<g ><use style="fill: none; stroke: #000000; stroke-width: 0.500000; stroke-linejoin: round; stroke-linecap: butt;  opacity: 1.000000" xlink:href="#m20b58b2501143cb5e0a5e8f1ef6f1643" x="324.000000" y="61.714286"/>
</g></g>
<g id="text15">
<g style="fill: #000000; opacity: 1.000000" transform="translate(28.296875,65.183036)scale(0.100000)">
<use xlink:href="#c_58c110c550840c55df8a8eedb084bdd9"/>
<use xlink:href="#c_402588e6a3e0f48f1e947553ccc2fe49" x="56.399994"/>
<use xlink:href="#c_b8e04c2a8ab7e9ee901582cfef7cd2bc" x="80.999985"/>
</g>
</g>
</g>
<g id="ytick8">
<g id="line2d34">
<g ><use style="fill: none; stroke: #000000; stroke-width: 0.500000; stroke-linejoin: round; stroke-linecap: butt;  opacity: 1.000000" xlink:href="#m3400efa6b1638b3fea9e19e898273957" x="45.000000" y="28.800000"/>
</g></g>
<g id="line2d35">
<g ><use style="fill: none; stroke: #000000; stroke-width: 0.500000; stroke-linejoin: round; stroke-linecap: butt;  opacity: 1.000000" xlink:href="#m20b58b2501143cb5e0a5e8f1ef6f1643" x="324.000000" y="28.800000"/>
</g></g>
<g id="text16">
<g style="fill: #000000; opacity: 1.000000" transform="translate(28.531250,32.268750)scale(0.100000)">
<use xlink:href="#c_58c110c550840c55df8a8eedb084bdd9"/>
<use xlink:href="#c_402588e6a3e0f48f1e947553ccc2fe49" x="56.399994"/>
<use xlink:href="#c_0699dac6b6a025c8cf0819a42a19d94c" x="80.999985"/>
</g>
</g>
</g>
<g id="text17">
<defs>
<path id="c_c8245702dd2be71de648b9efa2055aa7" d="M39.703125 -9.593750q-1.000000 -2.406250 -2.656250 -6.109375q-1.640625 -3.703125 -3.546875 -8.000000q-1.906250 -4.296875 -4.062500 -8.843750q-2.140625 -4.546875 -4.046875 -8.593750q-1.890625 -4.062500 -3.546875 -7.250000q-1.640625 -3.203125 -2.640625 -4.906250q-1.109375 11.796875 -1.812500 25.546875q-0.687500 13.750000 -1.187500 27.750000l-9.500000 0.000000q0.390625 -9.000000 0.890625 -18.140625q0.500000 -9.156250 1.156250 -18.000000q0.656250 -8.859375 1.406250 -17.250000q0.750000 -8.406250 1.640625 -15.906250l8.500000 0.000000q2.703125 4.390625 5.796875 10.390625q3.109375 6.000000 6.203125 12.562500q3.109375 6.546875 6.000000 13.093750q2.906250 6.546875 5.296875 11.953125q2.406250 -5.406250 5.296875 -11.953125q2.906250 -6.546875 6.000000 -13.093750q3.109375 -6.562500 6.203125 -12.562500q3.109375 -6.000000 5.812500 -10.390625l8.500000 0.000000q3.390625 33.500000 5.093750 69.296875l-9.500000 0.000000q-0.500000 -14.000000 -1.203125 -27.750000q-0.703125 -13.750000 -1.796875 -25.546875q-1.000000 1.703125 -2.656250 4.906250q-1.640625 3.187500 -3.546875 7.250000q-1.890625 4.046875 -4.046875 8.593750q-2.156250 4.546875 -4.062500 8.843750q-1.890625 4.296875 -3.546875 8.000000q-1.640625 3.703125 -2.640625 6.109375z"/>
<path id="c_2163e25694f82ee147507718049a7ac0" d="M25.593750 -6.703125q3.312500 0.000000 5.859375 -0.140625q2.546875 -0.156250 4.250000 -0.562500l0.000000 -15.500000q-1.000000 -0.500000 -3.250000 -0.843750q-2.250000 -0.343750 -5.453125 -0.343750q-2.093750 0.000000 -4.453125 0.296875q-2.343750 0.296875 -4.296875 1.250000q-1.953125 0.953125 -3.250000 2.609375q-1.296875 1.640625 -1.296875 4.343750q0.000000 5.000000 3.187500 6.953125q3.203125 1.937500 8.703125 1.937500M24.796875 -53.296875q5.609375 0.000000 9.453125 1.453125q3.843750 1.437500 6.187500 4.093750q2.359375 2.656250 3.359375 6.312500q1.000000 3.640625 1.000000 8.031250l0.000000 32.500000q-1.203125 0.203125 -3.359375 0.562500q-2.140625 0.343750 -4.843750 0.640625q-2.687500 0.296875 -5.843750 0.546875q-3.156250 0.250000 -6.250000 0.250000q-4.406250 0.000000 -8.109375 -0.906250q-3.687500 -0.890625 -6.390625 -2.828125q-2.703125 -1.953125 -4.203125 -5.156250q-1.500000 -3.203125 -1.500000 -7.703125q0.000000 -4.296875 1.750000 -7.390625q1.750000 -3.109375 4.750000 -5.000000q3.000000 -1.906250 7.000000 -2.796875q4.000000 -0.906250 8.406250 -0.906250q1.390625 0.000000 2.890625 0.156250q1.500000 0.140625 2.843750 0.390625q1.359375 0.250000 2.359375 0.453125q1.000000 0.187500 1.406250 0.296875l0.000000 -2.609375q0.000000 -2.296875 -0.500000 -4.546875q-0.500000 -2.250000 -1.812500 -4.000000q-1.296875 -1.750000 -3.546875 -2.796875q-2.250000 -1.046875 -5.843750 -1.046875q-4.593750 0.000000 -8.046875 0.656250q-3.453125 0.640625 -5.156250 1.343750l-1.093750 -7.703125q1.796875 -0.796875 6.000000 -1.546875q4.203125 -0.750000 9.093750 -0.750000"/>
<path id="c_597fff832e0f57056653ef1318c35038" d="M20.093750 -6.703125q5.703125 0.000000 8.453125 -1.500000q2.750000 -1.500000 2.750000 -4.796875q0.000000 -3.406250 -2.703125 -5.406250q-2.687500 -2.000000 -8.890625 -4.500000q-3.000000 -1.187500 -5.750000 -2.437500q-2.750000 -1.250000 -4.750000 -2.953125q-2.000000 -1.703125 -3.203125 -4.093750q-1.203125 -2.406250 -1.203125 -5.906250q0.000000 -6.906250 5.093750 -10.953125q5.109375 -4.046875 13.906250 -4.046875q2.203125 0.000000 4.406250 0.250000q2.203125 0.250000 4.093750 0.609375q1.906250 0.343750 3.343750 0.750000q1.453125 0.390625 2.265625 0.687500l-1.703125 8.000000q-1.500000 -0.796875 -4.703125 -1.640625q-3.203125 -0.859375 -7.703125 -0.859375q-3.890625 0.000000 -6.796875 1.546875q-2.906250 1.546875 -2.906250 4.859375q0.000000 1.687500 0.656250 3.000000q0.656250 1.296875 2.000000 2.343750q1.343750 1.046875 3.343750 1.953125q2.000000 0.890625 4.812500 1.890625q3.687500 1.406250 6.593750 2.765625q2.906250 1.343750 4.953125 3.140625q2.046875 1.796875 3.140625 4.359375q1.109375 2.546875 1.109375 6.234375q0.000000 7.203125 -5.359375 10.906250q-5.343750 3.703125 -15.250000 3.703125q-6.890625 0.000000 -10.796875 -1.156250q-3.890625 -1.140625 -5.296875 -1.750000l1.703125 -8.000000q1.593750 0.609375 5.093750 1.812500q3.500000 1.187500 9.296875 1.187500"/>
<path id="c_21eec8eddc38b5c851475f236232958e" d="M17.296875 -0.000000l-9.296875 0.000000l0.000000 -52.000000l9.296875 0.000000zM12.593750 -61.406250q-2.500000 0.000000 -4.250000 -1.640625q-1.750000 -1.656250 -1.750000 -4.453125q0.000000 -2.796875 1.750000 -4.437500q1.750000 -1.656250 4.250000 -1.656250q2.500000 0.000000 4.250000 1.656250q1.750000 1.640625 1.750000 4.437500q0.000000 2.796875 -1.750000 4.453125q-1.750000 1.640625 -4.250000 1.640625"/>
<path id="c_2787a1a6e8874ea98a8a40635a816a53" d="M8.000000 -50.500000q3.203125 -0.796875 8.453125 -1.687500q5.250000 -0.906250 12.140625 -0.906250q5.000000 0.000000 8.406250 1.343750q3.406250 1.343750 5.703125 3.953125q0.703125 -0.500000 2.203125 -1.390625q1.500000 -0.906250 3.687500 -1.750000q2.203125 -0.859375 4.906250 -1.500000q2.703125 -0.656250 5.796875 -0.656250q6.000000 0.000000 9.796875 1.750000q3.812500 1.750000 5.953125 4.953125q2.156250 3.187500 2.906250 7.593750q0.750000 4.390625 0.750000 9.593750l0.000000 29.203125l-9.296875 0.000000l0.000000 -27.203125q0.000000 -4.593750 -0.453125 -7.890625q-0.453125 -3.312500 -1.703125 -5.500000q-1.250000 -2.203125 -3.406250 -3.250000q-2.140625 -1.062500 -5.546875 -1.062500q-4.703125 0.000000 -7.750000 1.250000q-3.046875 1.250000 -4.140625 2.250000q0.796875 2.609375 1.187500 5.718750q0.406250 3.093750 0.406250 6.484375l0.000000 29.203125l-9.296875 0.000000l0.000000 -27.203125q0.000000 -4.593750 -0.500000 -7.890625q-0.500000 -3.312500 -1.750000 -5.500000q-1.250000 -2.203125 -3.406250 -3.250000q-2.140625 -1.062500 -5.453125 -1.062500q-1.390625 0.000000 -3.000000 0.109375q-1.593750 0.093750 -3.046875 0.250000q-1.453125 0.140625 -2.656250 0.343750q-1.187500 0.203125 -1.593750 0.296875l0.000000 43.906250l-9.296875 0.000000z"/>
<path id="c_fd7f123db609cb00330c0ba58a8d22a2" d="M27.203125 -53.093750q1.203125 0.000000 2.750000 0.156250q1.546875 0.140625 3.046875 0.390625q1.500000 0.250000 2.750000 0.500000q1.250000 0.250000 1.843750 0.453125l-1.593750 8.093750q-1.093750 -0.406250 -3.656250 -0.953125q-2.546875 -0.546875 -6.546875 -0.546875q-2.593750 0.000000 -5.156250 0.546875q-2.546875 0.546875 -3.343750 0.750000l0.000000 43.703125l-9.296875 0.000000l0.000000 -49.796875q3.296875 -1.203125 8.187500 -2.250000q4.906250 -1.046875 11.015625 -1.046875"/>
<path id="c_ec94b916aa7de96e2f5a6fa4899d0422" d="M1.906250 9.703125q1.093750 0.500000 2.843750 0.937500q1.750000 0.453125 3.453125 0.453125q5.500000 0.000000 8.593750 -2.453125q3.109375 -2.437500 5.609375 -7.937500q-6.312500 -12.000000 -11.765625 -25.453125q-5.437500 -13.453125 -9.046875 -27.250000l10.000000 0.000000q1.109375 4.500000 2.656250 9.703125q1.546875 5.203125 3.437500 10.703125q1.906250 5.500000 4.109375 11.000000q2.203125 5.500000 4.609375 10.593750q3.796875 -10.500000 6.593750 -20.796875q2.796875 -10.296875 5.296875 -21.203125l9.609375 0.000000q-3.609375 14.703125 -8.015625 28.250000q-4.390625 13.546875 -9.484375 25.343750q-2.000000 4.500000 -4.156250 7.750000q-2.156250 3.250000 -4.750000 5.343750q-2.593750 2.109375 -5.843750 3.109375q-3.250000 1.000000 -7.359375 1.000000q-1.093750 0.000000 -2.296875 -0.156250q-1.203125 -0.140625 -2.359375 -0.390625q-1.140625 -0.250000 -2.093750 -0.546875q-0.953125 -0.296875 -1.343750 -0.500000z"/>
</defs>
<g style="fill: #000000; opacity: 1.000000" transform="translate(23.250000,176.562500)rotate(-90.0)scale(0.100000)">
<use xlink:href="#c_c8245702dd2be71de648b9efa2055aa7"/>
<use xlink:href="#c_2630c3a8efd9c11952dcd56112a56471" x="87.099991"/>
<use xlink:href="#c_2163e25694f82ee147507718049a7ac0" x="142.999985"/>
<use xlink:href="#c_007a5bf2f236bd5296a073a16035f8e6" x="195.199982"/>
<use xlink:href="#c_d41d8cd98f00b204e9800998ecf8427e" x="252.599976"/>
<use xlink:href="#c_597fff832e0f57056653ef1318c35038" x="275.699966"/>
<use xlink:href="#c_21eec8eddc38b5c851475f236232958e" x="320.299957"/>
<use xlink:href="#c_2787a1a6e8874ea98a8a40635a816a53" x="345.599945"/>
<use xlink:href="#c_21eec8eddc38b5c851475f236232958e" x="431.699936"/>
<use xlink:href="#c_7dbc717a9f424be062ac558a964a8b5c" x="456.999924"/>
<use xlink:href="#c_2163e25694f82ee147507718049a7ac0" x="484.299911"/>
<use xlink:href="#c_fd7f123db609cb00330c0ba58a8d22a2" x="536.499908"/>
<use xlink:href="#c_21eec8eddc38b5c851475f236232958e" x="575.099899"/>
<use xlink:href="#c_08126cea654df7957dbab5417730ce31" x="600.399887"/>
<use xlink:href="#c_ec94b916aa7de96e2f5a6fa4899d0422" x="640.599884"/>
</g>
</g>
</g>
<g id="patch3">
<path style="fill: none; stroke: #000000; stroke-width: 1.000000; stroke-linejoin: round; stroke-linecap: square;  opacity: 1.000000"  d="M45.000000 28.800000L324.000000 28.800000"/>
</g>
<g id="patch4">
<path style="fill: none; stroke: #000000; stroke-width: 1.000000; stroke-linejoin: round; stroke-linecap: square;  opacity: 1.000000"  d="M324.000000 259.200000L324.000000 28.800000"/>
</g>
<g id="patch5">
<path style="fill: none; stroke: #000000; stroke-width: 1.000000; stroke-linejoin: round; stroke-linecap: square;  opacity: 1.000000"  d="M45.000000 259.200000L324.000000 259.200000"/>
</g>
<g id="patch6">
<path style="fill: none; stroke: #000000; stroke-width: 1.000000; stroke-linejoin: round; stroke-linecap: square;  opacity: 1.000000"  d="M45.000000 259.200000L45.000000 28.800000"/>
</g>
<g id="legend1">
<g id="patch7">
<path style="fill: #ffffff; stroke: #000000; stroke-width: 1.000000; stroke-linejoin: round; stroke-linecap: square;  opacity: 1.000000"  d="M139.203125 87.040625L315.600000 87.040625
Q318.000000 87.040625 318.000000 84.640625L318.000000 37.200000
Q318.000000 34.800000 315.600000 34.800000L139.203125 34.800000
Q136.803125 34.800000 136.803125 37.200000L136.803125 84.640625
Q136.803125 87.040625 139.203125 87.040625z"/>
</g>
<g id="text18">
<defs>
<path id="c_66c380af19baf3134d2ec681d7b0198c" d="M56.093750 -0.000000q-2.187500 -3.703125 -5.046875 -8.296875q-2.843750 -4.609375 -6.156250 -9.546875q-3.296875 -4.953125 -6.843750 -10.046875q-3.546875 -5.109375 -7.046875 -9.859375q-3.500000 -4.750000 -6.796875 -8.953125q-3.296875 -4.203125 -6.109375 -7.390625l0.000000 54.093750l-9.500000 0.000000l0.000000 -69.296875l7.703125 0.000000q4.703125 5.000000 10.046875 11.656250q5.359375 6.640625 10.609375 13.687500q5.250000 7.046875 9.890625 13.859375q4.656250 6.796875 7.859375 12.093750l0.000000 -51.296875l9.500000 0.000000l0.000000 69.296875z"/>
<path id="c_7f02fed4443b5ca352af9ca9d9346975" d="M53.906250 -26.000000q0.000000 6.203125 -1.812500 11.203125q-1.796875 5.000000 -5.046875 8.609375q-3.250000 3.593750 -7.750000 5.546875q-4.500000 1.937500 -9.796875 1.937500q-5.296875 0.000000 -9.796875 -1.937500q-4.500000 -1.953125 -7.750000 -5.546875q-3.250000 -3.609375 -5.062500 -8.609375q-1.796875 -5.000000 -1.796875 -11.203125q0.000000 -6.093750 1.796875 -11.140625q1.812500 -5.062500 5.062500 -8.656250q3.250000 -3.609375 7.750000 -5.546875q4.500000 -1.953125 9.796875 -1.953125q5.296875 0.000000 9.796875 1.953125q4.500000 1.937500 7.750000 5.546875q3.250000 3.593750 5.046875 8.656250q1.812500 5.046875 1.812500 11.140625M44.203125 -26.000000q0.000000 -8.796875 -3.953125 -13.937500q-3.953125 -5.156250 -10.750000 -5.156250q-6.796875 0.000000 -10.750000 5.156250q-3.953125 5.140625 -3.953125 13.937500q0.000000 8.796875 3.953125 13.953125q3.953125 5.140625 10.750000 5.140625q6.796875 0.000000 10.750000 -5.140625q3.953125 -5.156250 3.953125 -13.953125"/>
<path id="c_519d2df403bb467c68c5cd8574c917c6" d="M28.296875 -77.593750q4.109375 0.000000 7.046875 0.593750q2.953125 0.593750 4.156250 1.093750l-1.703125 8.000000q-1.203125 -0.593750 -3.406250 -1.140625q-2.187500 -0.546875 -5.390625 -0.546875q-6.500000 0.000000 -9.109375 3.546875q-2.593750 3.546875 -2.593750 9.546875l0.000000 4.500000l20.000000 0.000000l0.000000 7.796875l-20.000000 0.000000l0.000000 44.203125l-9.296875 0.000000l0.000000 -56.703125q0.000000 -10.000000 4.890625 -15.437500q4.906250 -5.453125 15.406250 -5.453125"/>
<path id="c_74dcb43764efc49c10fac259325afe46" d="M41.593750 -41.000000q-1.687500 -1.406250 -4.890625 -2.703125q-3.203125 -1.296875 -7.000000 -1.296875q-4.000000 0.000000 -6.859375 1.453125q-2.843750 1.453125 -4.640625 4.000000q-1.796875 2.546875 -2.609375 6.046875q-0.796875 3.500000 -0.796875 7.500000q0.000000 9.093750 4.500000 14.046875q4.500000 4.953125 12.000000 4.953125q3.796875 0.000000 6.343750 -0.343750q2.562500 -0.359375 3.953125 -0.750000zM41.593750 -76.000000l9.312500 -1.593750l0.000000 76.093750q-3.203125 0.906250 -8.203125 1.796875q-5.000000 0.906250 -11.500000 0.906250q-6.000000 0.000000 -10.812500 -1.890625q-4.796875 -1.906250 -8.203125 -5.406250q-3.390625 -3.500000 -5.250000 -8.546875q-1.843750 -5.062500 -1.843750 -11.359375q0.000000 -6.000000 1.546875 -11.000000q1.562500 -5.000000 4.562500 -8.593750q3.000000 -3.609375 7.343750 -5.609375q4.359375 -2.000000 9.953125 -2.000000q4.500000 0.000000 7.953125 1.203125q3.453125 1.203125 5.140625 2.296875z"/>
</defs>
<g style="fill: #000000; opacity: 1.000000" transform="translate(188.112500,47.365625)scale(0.100000)">
<use xlink:href="#c_66c380af19baf3134d2ec681d7b0198c"/>
<use xlink:href="#c_fd7f123db609cb00330c0ba58a8d22a2" x="72.799988"/>
<use xlink:href="#c_402588e6a3e0f48f1e947553ccc2fe49" x="105.899979"/>
<use xlink:href="#c_d41d8cd98f00b204e9800998ecf8427e" x="130.499969"/>
<use xlink:href="#c_7f02fed4443b5ca352af9ca9d9346975" x="153.599960"/>
<use xlink:href="#c_519d2df403bb467c68c5cd8574c917c6" x="212.599945"/>
<use xlink:href="#c_d41d8cd98f00b204e9800998ecf8427e" x="251.199936"/>
<use xlink:href="#c_74dcb43764efc49c10fac259325afe46" x="274.299927"/>
<use xlink:href="#c_21eec8eddc38b5c851475f236232958e" x="333.199921"/>
<use xlink:href="#c_2787a1a6e8874ea98a8a40635a816a53" x="358.499908"/>
<use xlink:href="#c_2630c3a8efd9c11952dcd56112a56471" x="444.599899"/>
<use xlink:href="#c_007a5bf2f236bd5296a073a16035f8e6" x="500.499893"/>
<use xlink:href="#c_597fff832e0f57056653ef1318c35038" x="557.899887"/>
<use xlink:href="#c_21eec8eddc38b5c851475f236232958e" x="602.499878"/>
<use xlink:href="#c_7f02fed4443b5ca352af9ca9d9346975" x="627.799866"/>
<use xlink:href="#c_007a5bf2f236bd5296a073a16035f8e6" x="686.799850"/>
<use xlink:href="#c_597fff832e0f57056653ef1318c35038" x="744.199844"/>
</g>
</g>
<g id="line2d36">
<path style="fill: none; stroke: #75507b; stroke-width: 2.000000; stroke-linejoin: round; stroke-linecap: square;  opacity: 1.000000"  d="M145.203125 60.321875L162.003125 60.321875"/>
</g>
<g id="line2d37">
</g>
<g id="text19">
<g style="fill: #000000; opacity: 1.000000" transform="translate(175.203125,64.521875)scale(0.120000)">
<use xlink:href="#c_cc6fed3b17ccb9d03f1b2be8b2651138"/>
</g>
</g>
<g id="line2d38">
<path style="fill: none; stroke: #729fcf; stroke-width: 2.000000; stroke-linejoin: round; stroke-linecap: square;  opacity: 1.000000"  d="M145.203125 77.853125L162.003125 77.853125"/>
</g>
<g id="line2d39">
</g>
<g id="text20">
<g style="fill: #000000; opacity: 1.000000" transform="translate(175.203125,82.053125)scale(0.120000)">
<use xlink:href="#c_dcfa75b307750c46f57ba5ed76b90e2d"/>
</g>
</g>
<g id="line2d40">
<path style="fill: none; stroke: #cc0000; stroke-width: 2.000000; stroke-linejoin: round; stroke-linecap: square;  opacity: 1.000000"  d="M208.006250 60.321875L224.806250 60.321875"/>
</g>
<g id="line2d41">
</g>
<g id="text21">
<defs>
<path id="c_ac7217f84ce0681b085a027a2b0791bf" d="M4.000000 -24.000000q1.906250 -4.406250 5.203125 -10.250000q3.296875 -5.843750 7.437500 -12.046875q4.156250 -6.203125 8.906250 -12.203125q4.750000 -6.000000 9.546875 -10.796875l8.906250 0.000000l0.000000 44.000000l8.203125 0.000000l0.000000 7.593750l-8.203125 0.000000l0.000000 17.703125l-9.000000 0.000000l0.000000 -17.703125l-31.000000 0.000000zM35.000000 -58.296875q-3.000000 3.203125 -6.046875 7.156250q-3.046875 3.937500 -5.953125 8.250000q-2.906250 4.296875 -5.453125 8.796875q-2.546875 4.500000 -4.546875 8.796875l22.000000 0.000000z"/>
</defs>
<g style="fill: #000000; opacity: 1.000000" transform="translate(238.006250,64.521875)scale(0.120000)">
<use xlink:href="#c_ac7217f84ce0681b085a027a2b0791bf"/>
</g>
</g>
<g id="line2d42">
<path style="fill: none; stroke: #f57900; stroke-width: 2.000000; stroke-linejoin: round; stroke-linecap: square;  opacity: 1.000000"  d="M208.006250 77.853125L224.806250 77.853125"/>
</g>
<g id="line2d43">
</g>
<g id="text22">
<defs>
<path id="c_685a561560682067ac296e59eb521219" d="M50.906250 -18.000000q0.000000 4.203125 -1.453125 7.750000q-1.453125 3.546875 -4.312500 6.203125q-2.843750 2.640625 -7.140625 4.093750q-4.296875 1.453125 -9.906250 1.453125q-6.500000 0.000000 -10.843750 -1.843750q-4.343750 -1.859375 -6.953125 -4.656250q-2.593750 -2.796875 -3.703125 -6.140625q-1.093750 -3.359375 -1.093750 -6.359375q0.000000 -2.906250 0.953125 -5.546875q0.953125 -2.656250 2.500000 -4.953125q1.546875 -2.296875 3.593750 -4.140625q2.046875 -1.859375 4.359375 -3.265625q-9.812500 -5.593750 -9.812500 -16.500000q0.000000 -3.796875 1.500000 -7.234375q1.500000 -3.453125 4.250000 -6.046875q2.750000 -2.609375 6.656250 -4.156250q3.906250 -1.562500 8.703125 -1.562500q5.593750 0.000000 9.593750 1.703125q4.000000 1.703125 6.546875 4.359375q2.562500 2.640625 3.703125 5.843750q1.156250 3.203125 1.156250 6.203125q0.000000 2.890625 -0.859375 5.453125q-0.843750 2.546875 -2.296875 4.750000q-1.453125 2.187500 -3.296875 3.890625q-1.843750 1.703125 -3.843750 3.000000q11.796875 5.609375 12.000000 17.703125M14.906250 -17.406250q0.000000 1.812500 0.640625 3.765625q0.656250 1.937500 2.250000 3.593750q1.609375 1.640625 4.109375 2.750000q2.500000 1.093750 6.296875 1.093750q3.390625 0.000000 5.937500 -1.000000q2.562500 -1.000000 4.156250 -2.546875q1.609375 -1.546875 2.406250 -3.546875q0.796875 -2.000000 0.796875 -4.109375q0.000000 -3.187500 -1.203125 -5.593750q-1.203125 -2.406250 -3.453125 -4.203125q-2.250000 -1.796875 -5.406250 -3.046875q-3.140625 -1.250000 -7.140625 -2.156250q-4.500000 2.500000 -6.953125 6.203125q-2.437500 3.703125 -2.437500 8.796875M39.906250 -52.906250q0.000000 -1.500000 -0.656250 -3.296875q-0.656250 -1.796875 -2.062500 -3.343750q-1.390625 -1.546875 -3.593750 -2.593750q-2.187500 -1.062500 -5.390625 -1.062500q-3.203125 0.000000 -5.453125 1.000000q-2.250000 1.000000 -3.656250 2.562500q-1.390625 1.546875 -2.046875 3.390625q-0.640625 1.843750 -0.640625 3.656250q0.000000 2.187500 0.796875 4.390625q0.796875 2.203125 2.500000 4.109375q1.703125 1.890625 4.453125 3.390625q2.750000 1.500000 6.546875 2.406250q4.203125 -2.500000 6.703125 -5.843750q2.500000 -3.359375 2.500000 -8.765625"/>
</defs>
<g style="fill: #000000; opacity: 1.000000" transform="translate(238.006250,82.053125)scale(0.120000)">
<use xlink:href="#c_685a561560682067ac296e59eb521219"/>
</g>
</g>
<g id="line2d44">
<path style="fill: none; stroke: #3465a5; stroke-width: 2.000000; stroke-linejoin: round; stroke-linecap: square;  opacity: 1.000000"  d="M271.387500 60.321875L288.187500 60.321875"/>
</g>
<g id="line2d45">
</g>
<g id="text23">
<defs>
<path id="c_1d0e35b2d80752f114b7c1d5334479b8" d="M6.296875 -27.796875q0.000000 -10.109375 2.796875 -17.859375q2.812500 -7.750000 7.953125 -13.046875q5.156250 -5.296875 12.500000 -8.046875q7.359375 -2.750000 16.546875 -2.843750l0.703125 7.796875q-5.890625 0.093750 -10.750000 1.296875q-4.843750 1.203125 -8.656250 3.812500q-3.796875 2.593750 -6.390625 6.750000q-2.593750 4.140625 -3.906250 10.234375q2.609375 -1.203125 5.859375 -2.000000q3.250000 -0.796875 6.750000 -0.796875q5.890625 0.000000 9.984375 1.796875q4.109375 1.796875 6.703125 4.750000q2.609375 2.953125 3.750000 6.812500q1.156250 3.843750 1.156250 8.046875q0.000000 3.796875 -1.296875 7.796875q-1.296875 4.000000 -3.953125 7.296875q-2.640625 3.296875 -6.750000 5.406250q-4.093750 2.093750 -9.703125 2.093750q-11.390625 0.000000 -17.343750 -7.796875q-5.953125 -7.796875 -5.953125 -21.500000M28.703125 -34.906250q-3.500000 0.000000 -6.500000 0.656250q-3.000000 0.656250 -6.000000 1.953125q-0.109375 1.093750 -0.156250 2.250000q-0.046875 1.140625 -0.046875 2.250000q0.000000 4.390625 0.593750 8.296875q0.609375 3.906250 2.156250 6.859375q1.546875 2.937500 4.140625 4.687500q2.609375 1.750000 6.609375 1.750000q3.296875 0.000000 5.593750 -1.390625q2.312500 -1.406250 3.812500 -3.609375q1.500000 -2.203125 2.140625 -4.750000q0.656250 -2.546875 0.656250 -4.953125q0.000000 -6.796875 -3.250000 -10.390625q-3.250000 -3.609375 -9.750000 -3.609375"/>
</defs>
<g style="fill: #000000; opacity: 1.000000" transform="translate(301.387500,64.521875)scale(0.120000)">
<use xlink:href="#c_cc6fed3b17ccb9d03f1b2be8b2651138"/>
<use xlink:href="#c_1d0e35b2d80752f114b7c1d5334479b8" x="56.399994"/>
</g>
</g>
</g>
</g>
</g>
</svg>
